<svg width="156" height="94" viewBox="0 0 156 94" fill="none" xmlns="http://www.w3.org/2000/svg">
<path d="M43.8761 34.6414C43.8761 36.5595 44.0833 38.1148 44.4457 39.2553C44.86 40.3958 45.3778 41.64 46.1028 42.9878C46.3617 43.4026 46.4652 43.8173 46.4652 44.1802C46.4652 44.6986 46.1546 45.217 45.4814 45.7354L42.2191 47.9128C41.7531 48.2238 41.287 48.3793 40.8728 48.3793C40.3549 48.3793 39.8371 48.1201 39.3193 47.6535C38.5943 46.8759 37.9729 46.0465 37.4551 45.217C36.9373 44.3357 36.4195 43.3507 35.8499 42.1584C31.8108 46.9278 26.7362 49.3125 20.6259 49.3125C16.2761 49.3125 12.8067 48.0683 10.2694 45.5799C7.73206 43.0915 6.4375 39.7737 6.4375 35.6264C6.4375 31.2199 7.99097 27.6428 11.1497 24.9471C14.3084 22.2513 18.5028 20.9035 23.8364 20.9035C25.597 20.9035 27.4093 21.059 29.3253 21.3182C31.2412 21.5774 33.209 21.9921 35.2803 22.4587V18.6743C35.2803 14.7344 34.4517 11.9868 32.8465 10.3797C31.1895 8.77261 28.3932 7.995 24.406 7.995C22.5936 7.995 20.7294 8.20236 18.8135 8.66893C16.8975 9.1355 15.0334 9.70576 13.221 10.4315C12.3925 10.7944 11.7711 11.0018 11.4086 11.1055C11.0461 11.2092 10.7872 11.261 10.5801 11.261C9.85513 11.261 9.49266 10.7426 9.49266 9.65392V7.11369C9.49266 6.28423 9.59622 5.66214 9.85513 5.29925C10.114 4.93636 10.5801 4.57347 11.305 4.21058C13.1174 3.27744 15.2923 2.49982 17.8296 1.87773C20.3669 1.20379 23.0596 0.892745 25.9077 0.892745C32.0698 0.892745 36.5748 2.29246 39.4746 5.09189C42.3227 7.89131 43.7726 12.1423 43.7726 17.8448V34.6414H43.8761ZM22.8525 42.5213C24.5613 42.5213 26.3219 42.2102 28.1861 41.5881C30.0502 40.966 31.7073 39.8255 33.1054 38.2703C33.9339 37.2853 34.5553 36.1966 34.866 34.9524C35.1767 33.7083 35.3838 32.2049 35.3838 30.4423V28.2649C33.8821 27.902 32.2769 27.591 30.6198 27.3836C28.9628 27.1763 27.3576 27.0726 25.7523 27.0726C22.2829 27.0726 19.7456 27.7465 18.0367 29.1462C16.3279 30.5459 15.4994 32.5159 15.4994 35.108C15.4994 37.5445 16.1208 39.359 17.4154 40.6031C18.6581 41.8992 20.4705 42.5213 22.8525 42.5213ZM64.4337 48.1201C63.5016 48.1201 62.8802 47.9646 62.466 47.6017C62.0517 47.2907 61.6893 46.5649 61.3786 45.5799L49.2097 5.50662C48.899 4.46979 48.7437 3.79585 48.7437 3.43297C48.7437 2.60351 49.1579 2.13693 49.9864 2.13693H55.0611C56.045 2.13693 56.7181 2.29246 57.0806 2.65535C57.4949 2.96639 57.8056 3.69217 58.1163 4.67716L66.8157 38.9961L74.8937 4.67716C75.1527 3.64033 75.4633 2.96639 75.8776 2.65535C76.2919 2.3443 77.0168 2.13693 77.9489 2.13693H82.0915C83.0753 2.13693 83.7485 2.29246 84.1628 2.65535C84.577 2.96639 84.9395 3.69217 85.1466 4.67716L93.3282 39.4108L102.287 4.67716C102.597 3.64033 102.96 2.96639 103.322 2.65535C103.737 2.3443 104.41 2.13693 105.342 2.13693H110.158C110.986 2.13693 111.452 2.55166 111.452 3.43297C111.452 3.69217 111.4 3.95138 111.349 4.26243C111.297 4.57347 111.193 4.9882 110.986 5.55846L98.5065 45.6317C98.1958 46.6686 97.8333 47.3425 97.4191 47.6535C97.0048 47.9646 96.3316 48.172 95.4513 48.172H90.998C90.0142 48.172 89.341 48.0164 88.9268 47.6535C88.5125 47.2907 88.15 46.6167 87.9429 45.5799L79.9166 12.1423L71.9422 45.5281C71.6832 46.5649 71.3725 47.2388 70.9583 47.6017C70.544 47.9646 69.8191 48.1201 68.887 48.1201H64.4337ZM130.974 49.5198C128.281 49.5198 125.589 49.2088 123 48.5867C120.41 47.9646 118.391 47.2907 117.045 46.513C116.216 46.0465 115.646 45.5281 115.439 45.0615C115.232 44.5949 115.129 44.0765 115.129 43.6099V40.966C115.129 39.8774 115.543 39.359 116.32 39.359C116.63 39.359 116.941 39.4108 117.252 39.5145C117.562 39.6182 118.028 39.8255 118.546 40.0329C120.307 40.8105 122.223 41.4326 124.242 41.8473C126.314 42.2621 128.333 42.4694 130.404 42.4694C133.667 42.4694 136.204 41.8992 137.965 40.7587C139.725 39.6182 140.657 37.9592 140.657 35.8337C140.657 34.3822 140.191 33.1898 139.259 32.2049C138.327 31.2199 136.566 30.3386 134.029 29.5091L126.521 27.1763C122.741 25.9839 119.944 24.2213 118.236 21.8885C116.527 19.6074 115.646 17.0672 115.646 14.3715C115.646 12.1941 116.112 10.276 117.045 8.61709C117.977 6.95817 119.219 5.50662 120.773 4.36611C122.326 3.17376 124.087 2.29246 126.158 1.67036C128.23 1.04827 130.404 0.789062 132.683 0.789062C133.822 0.789062 135.013 0.840904 136.152 0.996427C137.343 1.15195 138.431 1.35932 139.518 1.56668C140.554 1.82589 141.538 2.08509 142.47 2.39614C143.402 2.70719 144.127 3.01824 144.645 3.32928C145.369 3.74401 145.887 4.15874 146.198 4.62531C146.509 5.04004 146.664 5.6103 146.664 6.33608V8.77261C146.664 9.86128 146.25 10.4315 145.473 10.4315C145.059 10.4315 144.386 10.2242 143.505 9.80944C140.554 8.46157 137.24 7.78763 133.563 7.78763C130.612 7.78763 128.281 8.2542 126.676 9.23919C125.071 10.2242 124.242 11.7276 124.242 13.8531C124.242 15.3046 124.76 16.5488 125.796 17.5338C126.831 18.5188 128.747 19.5038 131.492 20.3851L138.845 22.7179C142.573 23.9103 145.266 25.5692 146.871 27.6947C148.476 29.8202 149.253 32.2567 149.253 34.9524C149.253 37.1816 148.787 39.2034 147.907 40.966C146.975 42.7286 145.732 44.2839 144.127 45.5281C142.521 46.8241 140.606 47.7572 138.379 48.4312C136.049 49.1569 133.615 49.5198 130.974 49.5198Z" fill="#252F3E"/>
<path fill-rule="evenodd" clip-rule="evenodd" d="M140.761 74.7151C123.725 87.3125 98.9726 94 77.6901 94C47.8635 94 20.9884 82.9578 0.689749 64.606C-0.915503 63.1545 0.534402 61.1845 2.45035 62.325C24.4061 75.0779 51.4882 82.8023 79.5025 82.8023C98.403 82.8023 119.168 78.8624 138.275 70.7751C141.123 69.4791 143.557 72.6414 140.761 74.7151Z" fill="#FF9A00"/>
<path fill-rule="evenodd" clip-rule="evenodd" d="M147.857 66.6268C145.682 63.8274 133.461 65.2789 127.921 65.9529C126.264 66.1602 126.005 64.7087 127.506 63.62C137.241 56.777 153.242 58.7469 155.106 61.0279C156.971 63.3608 154.589 79.3798 145.475 87.0523C144.077 88.2446 142.73 87.6225 143.352 86.0673C145.423 80.935 150.032 69.3744 147.857 66.6268Z" fill="#FF9A00"/>
</svg>
