<svg width="102" height="96" viewBox="0 0 102 96" fill="none" xmlns="http://www.w3.org/2000/svg">
<path d="M34.0047 0.00254529H64.187L32.8546 92.7146C32.6944 93.1881 32.4612 93.6338 32.1635 94.0356C31.8664 94.4378 31.5081 94.7903 31.1013 95.0817C30.6946 95.3732 30.2458 95.5997 29.7689 95.7524C29.292 95.9052 28.7947 95.9841 28.2949 95.9841H4.80542C4.04292 95.9841 3.29063 95.8033 2.61228 95.4546C1.93322 95.1069 1.34705 94.6026 0.902406 93.9835C0.457476 93.3644 0.166404 92.6485 0.0532043 91.8951C-0.0602776 91.1416 0.00857657 90.3717 0.252116 89.6501L29.4437 3.26942C29.6031 2.796 29.8365 2.35057 30.1348 1.94842C30.4319 1.54626 30.7915 1.19374 31.197 0.902304C31.6037 0.610869 32.0525 0.384338 32.5294 0.231621C33.0063 0.0789039 33.5036 0 34.0034 0V0.00127264L34.0047 0.00254529Z" fill="url(#paint0_linear_403_231)"/>
<path d="M89.6429 95.9845H62.5411C62.2389 95.9845 61.9367 95.9565 61.6383 95.8992C61.3413 95.8432 61.0493 95.7592 60.7675 95.6485C60.4857 95.5378 60.2154 95.4004 59.9591 95.24C59.7031 95.0786 59.4628 94.8937 59.2412 94.6877L28.4863 66.0201C28.1611 65.7169 27.9345 65.3232 27.836 64.89C27.7377 64.4568 27.7723 64.004 27.9354 63.5906C28.0984 63.1773 28.3824 62.8225 28.7503 62.5725C29.1188 62.3231 29.5536 62.1895 29.9986 62.1895H77.8599L89.6403 95.9858L89.6429 95.9845Z" fill="#0078D4"/>
<path d="M64.2947 0.0020128L43.1667 62.1948L77.6881 62.1872L89.5298 95.9835H62.53C62.2508 95.981 61.9715 95.9555 61.6961 95.9059C61.4207 95.8563 61.1504 95.7837 60.8877 95.687C60.361 95.4955 59.8711 95.2152 59.4392 94.8585L38.6784 75.5194L32.8666 92.6263C32.7161 93.0539 32.5096 93.4599 32.252 93.8328C31.7358 94.5829 31.0297 95.1832 30.2055 95.5725C29.7952 95.7662 29.3608 95.9044 28.9139 95.9835H4.81872C4.04857 95.9861 3.28863 95.8028 2.60391 95.449C1.91909 95.0955 1.32961 94.5827 0.885289 93.9538C0.440971 93.3249 0.154883 92.5985 0.0512069 91.836C-0.0520937 91.0731 0.0296793 90.2967 0.289646 89.572L29.4341 3.33379C29.5858 2.85146 29.8141 2.39713 30.1099 1.98734C30.4044 1.57755 30.764 1.21611 31.172 0.918316C31.58 0.620518 32.034 0.388897 32.5147 0.233634C32.9954 0.0783714 33.499 -0.000532488 34.0052 0.0020128H64.296H64.2947Z" fill="url(#paint1_linear_403_231)"/>
<path d="M101.747 89.6495C101.991 90.3715 102.06 91.1409 101.948 91.8945C101.834 92.6477 101.544 93.3634 101.1 93.9829C100.655 94.6016 100.069 95.1058 99.3902 95.4537C98.7115 95.8016 97.9596 95.9832 97.1966 95.9835H63.5575C64.32 95.9835 65.0723 95.8015 65.7519 95.454C66.4303 95.1066 67.0168 94.6014 67.4618 93.9829C67.9068 93.3644 68.1975 92.6479 68.311 91.8945C68.4245 91.1411 68.3557 90.3711 68.1121 89.6495L38.9192 3.26628C38.5979 2.31471 37.9856 1.4877 37.1685 0.901712C36.7631 0.610277 36.3142 0.385019 35.8386 0.232302C35.363 0.0795844 34.8657 0.00195312 34.3672 0.00195312H68.005C68.5048 0.00195312 69.0008 0.0795844 69.4777 0.232302C69.9533 0.385019 70.4021 0.611549 70.8089 0.901712C71.2144 1.19315 71.5727 1.54567 71.8698 1.94655C72.1669 2.34744 72.3989 2.79286 72.5596 3.26628L101.752 89.6495H101.747Z" fill="url(#paint2_linear_403_231)"/>
<defs>
<linearGradient id="paint0_linear_403_231" x1="45.0201" y1="7.11662" x2="13.7605" y2="99.6359" gradientUnits="userSpaceOnUse">
<stop stop-color="#114A8B"/>
<stop offset="1" stop-color="#0669BC"/>
</linearGradient>
<linearGradient id="paint1_linear_403_231" x1="54.7992" y1="50.2078" x2="47.5469" y2="52.6724" gradientUnits="userSpaceOnUse">
<stop stop-opacity="0.3"/>
<stop offset="0.1" stop-opacity="0.2"/>
<stop offset="0.3" stop-opacity="0.1"/>
<stop offset="0.6" stop-opacity="0.1"/>
<stop offset="1" stop-opacity="0"/>
</linearGradient>
<linearGradient id="paint2_linear_403_231" x1="50.7966" y1="4.41803" x2="85.1085" y2="96.0024" gradientUnits="userSpaceOnUse">
<stop stop-color="#3CCBF4"/>
<stop offset="1" stop-color="#2892DF"/>
</linearGradient>
</defs>
</svg>
