<?xml version="1.0" encoding="UTF-8"?>
<svg id="Layer_2" xmlns="http://www.w3.org/2000/svg" viewBox="0 0 1920 200.5">
  <defs>
    <style>
      .cls-1 {
        fill: #012a4a;
      }

      .cls-2 {
        fill: #2793f2;
      }
    </style>
  </defs>
  <g id="Layer_1-2" data-name="Layer_1">
    <g>
      <rect class="cls-2" width="1920" height="200.5"/>
      <path class="cls-1" d="M1920,30.66v169.84H0V34.44c12.1-4.67,25.26-7.22,39-7.22,26.33,0,50.47,9.37,69.27,24.94,5.84-4.29,13.04-6.83,20.84-6.83,17.33,0,31.73,12.52,34.67,29.01,17.31-26.05,46.93-43.23,80.55-43.23,35.59,0,66.68,19.24,83.46,47.88,8.59-7.14,19.62-11.43,31.65-11.43,23.74,0,43.57,16.69,48.42,38.97,16.04-16.05,38.21-25.97,62.7-25.97,35.21,0,65.62,20.52,79.93,50.26,5.46-2.66,11.59-4.15,18.07-4.15,14.85,0,27.86,7.83,35.15,19.59,13.65-24.16,39.56-40.48,69.29-40.48,27.24,0,51.27,13.69,65.61,34.57,6.44-2.86,13.56-4.46,21.06-4.46,14.57,0,27.73,6,37.17,15.66,14.73-24.74,41.72-41.33,72.6-41.33,26.63,0,50.36,12.34,65.84,31.59,14.84-9.58,32.52-15.14,51.5-15.14,28.86,0,54.72,12.86,72.16,33.15,7.2-3.98,15.47-6.26,24.28-6.26,11.72,0,22.49,4.03,31.03,10.75,14.43-17.36,36.19-28.42,60.53-28.42,16.67,0,32.12,5.2,44.84,14.04,8.97-8.68,21.18-14.04,34.66-14.04s25.77,5.39,34.74,14.13c8.26-8.7,19.93-14.13,32.87-14.13,6.08,0,11.87,1.21,17.17,3.38,11.92-27.05,38.94-45.94,70.38-45.94,21.85,0,41.56,9.13,55.56,23.77,13.48-14.61,32.78-23.77,54.22-23.77,15.76,0,30.35,4.96,42.34,13.38,8.62-8.28,20.32-13.38,33.22-13.38,8.3,0,16.1,2.11,22.91,5.82,13.4-21.63,37.33-36.04,64.64-36.04,2.57,0,5.11.13,7.61.38,8.84-14.1,24.52-23.49,42.39-23.49,11.8,0,22.63,4.1,31.18,10.93,15.47-21.67,40.81-35.82,69.46-35.82,22.73,0,43.37,8.91,58.66,23.4,8.75-4.14,18.31-6.86,28.37-7.85Z"/>
    </g>
  </g>
</svg>