<svg width="119" height="97" viewBox="0 0 119 97" fill="none" xmlns="http://www.w3.org/2000/svg">
<path d="M75.5052 26.4659H79.1365L89.4817 16.0828L89.9905 11.6773C70.7416 -5.37405 41.3569 -3.53675 24.3676 15.7825C19.6439 21.1492 16.2171 27.5322 14.3516 34.4409C15.5038 33.9653 16.7807 33.8902 17.9829 34.2206L38.6684 30.7963C38.6684 30.7963 39.7208 29.0491 40.2645 29.1592C49.4675 19.0165 64.9554 17.835 75.58 26.4659H75.5052Z" fill="#EA4335"/>
<path d="M104.218 34.4414C101.839 25.6554 96.9607 17.7555 90.1719 11.7129L75.6567 26.2812C81.787 31.3075 85.2786 38.882 85.129 46.8269V49.4152C92.2669 49.4152 98.0481 55.2224 98.0481 62.3814C98.0481 69.5454 92.2619 75.3477 85.129 75.3477H59.2859L56.707 77.9709V93.5254L59.2859 96.1137H85.129C99.9435 96.2288 113.087 86.5918 117.487 72.394C121.876 58.1912 116.489 42.7718 104.218 34.4414Z" fill="#4285F4"/>
<path d="M33.4047 95.9685H59.2478V75.2075H33.4047C31.5641 75.2075 29.7435 74.812 28.0675 74.041L24.4362 75.1674L14.0211 85.5504L13.1133 89.195C18.9543 93.6206 26.0822 95.9985 33.4047 95.9685Z" fill="#34A853"/>
<path d="M33.4076 28.6135C19.052 28.6986 6.33744 37.9251 1.7584 51.5773C-2.82064 65.2294 1.74343 80.2983 13.1212 89.0793L28.1103 74.0354C21.6059 71.0867 18.7178 63.4071 21.6558 56.8789C24.5937 50.3507 32.2454 47.4521 38.7498 50.4008C41.613 51.7024 43.9075 54.0053 45.2044 56.8789L60.1935 41.835C53.8138 33.4696 43.9025 28.5784 33.4076 28.6135Z" fill="#FBBC05"/>
</svg>
