<svg width="199" height="48" viewBox="0 0 199 48" fill="none" xmlns="http://www.w3.org/2000/svg">
<mask id="mask0_28_515" style="mask-type:luminance" maskUnits="userSpaceOnUse" x="0" y="0" width="199" height="48">
<path d="M198.654 0H0V48H198.654V0Z" fill="white"/>
</mask>
<g mask="url(#mask0_28_515)">
<path d="M55.2691 31.7648C55.2691 28.984 55.2854 26.2024 55.2614 23.4216C55.2561 22.9086 55.0514 22.4149 54.6853 22.0323C54.3193 21.6497 53.8167 21.4042 53.2713 21.3416C52.7543 21.2897 52.2335 21.4007 51.7919 21.6568C51.3502 21.913 51.013 22.2996 50.8337 22.7552C50.7072 23.1693 50.6616 23.6012 50.6992 24.0304C50.6992 29.2389 50.6992 34.4472 50.6992 39.6552C50.6992 40.8656 50.6855 40.8752 49.3784 40.8768C48.5094 40.8768 47.6406 40.8768 46.7721 40.8768C45.5413 40.8768 45.5173 40.8536 45.5165 39.6704C45.5165 36.3584 45.5165 33.0464 45.5165 29.7344C45.5165 29.456 45.5225 29.1744 45.5071 28.9C45.4713 28.3551 45.2125 27.8439 44.7843 27.472C44.356 27.1002 43.791 26.8962 43.2062 26.9023C42.6214 26.9083 42.0614 27.124 41.6421 27.5046C41.2228 27.8852 40.9762 28.4017 40.9534 28.9472C40.9286 32.512 40.9423 36.0768 40.9406 39.6416C40.9406 40.8752 40.9406 40.8776 39.5796 40.876C38.6291 40.876 37.6777 40.8392 36.7289 40.876C35.9807 40.904 35.727 40.6176 35.7322 39.9384C35.7544 37.132 35.7467 34.3256 35.7322 31.5192C35.7604 31.0858 35.6347 30.6557 35.3745 30.2958C35.1144 29.9358 34.7343 29.6659 34.2931 29.528C33.8741 29.369 33.413 29.3335 32.9717 29.4264C32.5305 29.5192 32.1302 29.7358 31.8248 30.0472C31.5898 30.2765 31.4099 30.55 31.2973 30.8493C31.1847 31.1487 31.1418 31.4671 31.1717 31.7832C31.1768 34.4632 31.1768 37.1432 31.1717 39.8232C31.1717 40.836 31.1443 40.8784 30.0935 40.8632C28.3588 40.8336 26.6241 40.9432 24.8876 40.7504C22.6901 40.5535 20.6437 39.6192 19.1279 38.121C17.6122 36.6228 16.7301 34.6623 16.6452 32.6032C16.5194 31.5242 16.5482 30.4343 16.7309 29.3624C17.4894 25.9088 19.9929 24.0824 23.4298 23.1272C24.0271 22.9574 24.6386 22.8345 25.2579 22.76C25.5525 22.7551 25.8357 22.6529 26.0573 22.4716C26.2788 22.2903 26.4244 22.0416 26.4681 21.7696C26.8065 20.4137 27.2862 19.092 27.9003 17.8232C28.7465 16.0821 30.077 14.5844 31.7534 13.4858C33.4297 12.3872 35.3908 11.7277 37.4326 11.576C40.4684 11.119 43.5762 11.7674 46.1147 13.3872C47.2525 14.2071 48.2876 15.1442 49.2002 16.1808C49.3673 16.391 49.6101 16.5379 49.8839 16.5943C50.1578 16.6507 50.4442 16.613 50.6906 16.488C55.3454 14.8584 59.5493 15.4864 63.131 18.8192C64.9231 20.4872 65.5111 22.6344 65.6645 24.8992C65.6502 25.2013 65.7529 25.4981 65.9539 25.7352C66.1549 25.9724 66.4407 26.134 66.759 26.1904C73.6524 28.1104 73.5855 35.648 70.2858 39.0456C69.7282 39.6236 69.0451 40.0841 68.282 40.3964C67.5188 40.7087 66.6931 40.8657 65.8599 40.8568C62.6296 40.8856 59.3985 40.8568 56.1673 40.8744C55.4979 40.8784 55.2579 40.6512 55.2631 40.0296C55.2854 37.2736 55.2725 34.5184 55.2725 31.7624L55.2691 31.7648Z" fill="#2793F2"/>
<path d="M13.6085 38.0032C11.598 37.9909 9.59073 37.8517 7.60041 37.5864C5.50579 37.1673 3.62086 36.1078 2.24415 34.5759C0.867437 33.0439 0.0776597 31.127 -9.44026e-05 29.1288C-0.121131 27.2244 0.33955 25.3271 1.32837 23.6576C1.96337 22.6796 2.80006 21.829 3.78991 21.1551C4.77976 20.4813 5.90308 19.9975 7.09474 19.732C8.52519 19.372 8.47034 19.3608 8.54404 18.0088C8.64115 15.2762 9.7245 12.6545 11.6184 10.5688C13.279 8.73406 15.5393 7.45931 18.0517 6.94056C20.5642 6.42181 23.1896 6.68778 25.5243 7.69757C26.21 7.97357 26.5297 7.90477 26.9454 7.31837C28.8486 4.3803 31.8474 2.20197 35.3661 1.20157C37.8502 0.502919 40.4828 0.399061 43.0213 0.899567C45.5598 1.40007 47.9225 2.48885 49.8917 4.06557C52.6813 6.17551 54.5721 9.14583 55.2235 12.4416C55.4807 13.5928 55.4224 13.6736 54.1951 13.7176C53.1103 13.7821 52.0417 13.9959 51.0239 14.352C50.8311 14.4458 50.6078 14.4694 50.3974 14.4181C50.1871 14.3668 50.0047 14.2442 49.8857 14.0744C46.3889 9.67437 39.5512 8.37437 33.9528 10.3056C31.7256 11.0315 29.7285 12.2662 28.1436 13.8972C26.5587 15.5282 25.4363 17.5035 24.879 19.6432C24.8067 20.0471 24.6025 20.4203 24.2943 20.7118C23.9861 21.0032 23.5889 21.1986 23.1571 21.2712C20.3637 21.8196 17.8807 23.3005 16.1737 25.436C13.6436 28.724 13.731 32.2768 15.0886 35.9224C15.2975 36.4434 15.5542 36.9465 15.8557 37.4264C16.1257 37.8792 15.9688 38.0128 15.4743 38.0056C14.8744 37.9968 14.2796 38.0056 13.6102 38.0056" fill="#FF9A00"/>
<path d="M140.161 48.0001C139.323 47.9159 138.511 47.6772 137.773 47.2979C137.034 46.9186 136.384 46.4062 135.859 45.7905C135.191 44.8626 134.804 43.7831 134.74 42.6665C134.685 42.1105 134.938 41.8817 135.534 41.8985C136.349 41.9209 137.163 41.9113 137.978 41.8985C138.071 41.8839 138.166 41.888 138.258 41.9106C138.349 41.9331 138.434 41.9737 138.507 42.0294C138.58 42.0852 138.639 42.1549 138.681 42.2339C138.723 42.3129 138.746 42.3993 138.749 42.4873C138.794 42.8087 138.906 43.1188 139.079 43.3996C139.253 43.6804 139.484 43.9265 139.759 44.1237C140.035 44.3208 140.35 44.4652 140.685 44.5485C141.021 44.6318 141.371 44.6523 141.715 44.6089C142.4 44.5726 143.047 44.3015 143.531 43.8478C144.015 43.394 144.303 42.7893 144.339 42.1497C144.397 41.4729 144.349 40.7897 144.349 39.9969C143.564 40.7215 142.562 41.2073 141.475 41.3905C137.678 41.9889 134.745 39.7105 134.742 36.1233C134.742 33.3929 134.765 30.6617 134.725 27.9313C134.714 27.1921 134.983 26.9425 135.754 26.9945C136.513 27.04 137.275 27.04 138.034 26.9945C138.701 26.9593 138.936 27.1801 138.928 27.8137C138.898 30.2409 138.913 32.6681 138.922 35.0937C138.922 35.4721 138.954 35.8498 139.018 36.2233C139.282 37.7361 140.085 38.3313 141.693 38.2329C142.394 38.2334 143.068 37.9752 143.567 37.5146C144.066 37.054 144.351 36.4281 144.358 35.7729C144.382 33.2193 144.366 30.6657 144.368 28.1121C144.368 27.0057 144.368 27.0041 145.52 27.0025C146.308 27.0025 147.096 27.0209 147.882 26.9969C148.431 26.9801 148.671 27.1689 148.669 27.6961C148.656 32.4241 148.722 37.1537 148.628 41.8801C148.577 44.4625 147.231 47.1601 142.77 47.9937L140.161 48.0001Z" fill="white"/>
<path d="M198.657 37.6825C197.893 40.1721 196.405 41.3625 193.472 41.6273C191.473 41.9038 189.431 41.6602 187.571 40.9233C186.777 40.6176 186.08 40.1263 185.548 39.4967C185.016 38.8671 184.666 38.1203 184.533 37.3281C184.438 36.8073 184.575 36.5617 185.175 36.5713C186.179 36.5881 187.183 36.5713 188.186 36.5769C188.319 36.5548 188.456 36.5733 188.577 36.6296C188.698 36.686 188.796 36.7772 188.856 36.8897C189.107 37.5461 189.61 38.0922 190.268 38.4221C190.926 38.7521 191.691 38.8423 192.416 38.6753C193.669 38.5313 194.335 38.1105 194.395 37.4265C194.458 36.7025 193.966 36.2585 192.656 35.9369C191.036 35.6263 189.446 35.1893 187.904 34.6305C186.34 33.9697 185.139 33.0129 185.076 31.2521C184.99 28.7225 186.301 27.2921 189.224 26.7721C191.094 26.4161 193.029 26.5036 194.853 27.0265C195.72 27.2609 196.494 27.7265 197.081 28.3661C197.667 29.0057 198.041 29.7913 198.156 30.6265C198.289 31.2665 198.045 31.5225 197.357 31.4913C196.815 31.4615 196.271 31.4615 195.728 31.4913C194.847 31.5481 194.073 31.5409 193.811 30.4961C193.724 30.2926 193.579 30.1153 193.392 29.9833C193.204 29.8513 192.982 29.7697 192.748 29.7473C191.87 29.5729 190.962 29.5729 190.084 29.7473C189.864 29.7631 189.656 29.8504 189.498 29.9941C189.34 30.1378 189.241 30.3288 189.218 30.5337C189.192 30.7492 189.239 30.967 189.354 31.1558C189.468 31.3445 189.644 31.4945 189.856 31.5841C190.562 31.9083 191.306 32.1535 192.074 32.3145C193.247 32.6241 194.428 32.9081 195.597 33.2297C196.359 33.3823 197.055 33.7416 197.599 34.2626C198.142 34.7836 198.508 35.443 198.651 36.1577L198.657 37.6825Z" fill="white"/>
<path d="M95.1337 41.3536C92.2745 41.2824 93.0022 41.8424 92.0679 39.1936C91.3077 37.0408 91.8254 37.4448 89.5302 37.4104C87.9557 37.3872 86.3804 37.4248 84.8069 37.3968C84.5804 37.3643 84.3493 37.4164 84.1638 37.5419C83.9783 37.6675 83.8534 37.8562 83.8161 38.0672C83.5375 38.9384 83.169 39.784 82.8896 40.6552C82.8455 40.8798 82.7086 41.0792 82.5086 41.2105C82.3086 41.3419 82.0613 41.3947 81.82 41.3576C80.8163 41.3296 79.811 41.3576 78.8065 41.348C77.9126 41.3408 77.8637 41.2808 78.1774 40.4624C79.4202 37.2 80.6672 33.939 81.9185 30.6792C82.9204 28.0608 83.9395 25.448 84.9106 22.82C84.9642 22.5612 85.1236 22.3319 85.355 22.1806C85.5864 22.0294 85.8718 21.9681 86.1507 22.0096C87.2889 22.0544 88.4314 22.0424 89.5704 22.0096C89.8099 21.9747 90.0547 22.0259 90.2552 22.1531C90.4557 22.2802 90.597 22.4737 90.6504 22.6944C92.8879 28.6576 95.1403 34.616 97.4075 40.5696C97.6218 41.1296 97.5232 41.38 96.8436 41.3504C96.2745 41.3264 95.7037 41.3456 95.1294 41.3456M87.8357 27.008L87.648 26.9952C86.9121 29.1286 86.1756 31.2592 85.4385 33.3872C85.3228 33.72 85.4565 33.8672 85.813 33.8672C87.0598 33.8672 88.3063 33.8672 89.5524 33.8672C89.9236 33.8672 90.1147 33.7368 89.981 33.3488C89.2605 31.2368 88.5462 29.1232 87.8383 27.008" fill="white"/>
<path d="M94.5297 7.08724C94.3674 7.07506 94.2043 7.07506 94.042 7.08724C92.8841 7.27044 92.2602 6.88324 91.7022 5.83284C90.1964 3.00244 85.7567 2.93924 83.9663 5.63124C83.3739 6.57259 83.022 7.62873 82.9378 8.71764C82.6676 10.527 82.8561 12.3703 83.4881 14.0992C83.7565 14.9608 84.3361 15.709 85.1286 16.2168C85.921 16.7246 86.8774 16.9606 87.8351 16.8848C88.7815 16.9397 89.7186 16.6833 90.4835 16.1602C91.2483 15.6372 91.7927 14.8805 92.0219 14.0216C92.0463 13.8877 92.0992 13.7597 92.1775 13.6452C92.2557 13.5307 92.3578 13.432 92.4777 13.3549C92.5975 13.2779 92.7327 13.224 92.8753 13.1966C93.0178 13.1692 93.1648 13.1687 93.3075 13.1952C94.2272 13.2456 95.1536 13.228 96.075 13.2016C96.6552 13.1848 96.795 13.424 96.669 13.8968C95.8076 17.1392 93.5784 19.9928 89.3187 20.5096C85.5699 20.964 82.2907 20.016 80.0726 16.9416C78.6065 14.7277 77.9732 12.1206 78.2728 9.53284C78.3521 7.75962 78.8307 6.02188 79.6775 4.43284C82.8564 -1.41276 92.1368 -1.14556 95.3311 3.28004C96.0233 4.22116 96.4909 5.29005 96.7024 6.41444C96.7924 6.90324 96.6287 7.12324 96.069 7.09044C95.5548 7.06084 95.0405 7.08404 94.5263 7.08484" fill="white"/>
<path d="M145.807 7.02247C145.807 5.10247 145.83 3.18247 145.796 1.26247C145.784 0.626472 146.029 0.413672 146.693 0.446472C147.506 0.484992 148.321 0.484992 149.135 0.446472C149.789 0.416872 149.984 0.682472 149.977 1.25287C149.956 3.02167 149.97 4.79047 149.97 6.56007C149.97 10.7049 149.953 14.8489 149.986 18.9929C149.992 19.7553 149.74 20.0497 148.914 19.9841C148.237 19.9353 147.557 19.9353 146.88 19.9841C146.136 20.0329 145.724 19.8241 145.827 19.0665C145.828 18.9912 145.814 18.9164 145.786 18.8457C145.781 18.8273 145.75 18.8145 145.671 18.7489C145.266 19.1386 144.812 19.4813 144.32 19.7697C142.091 20.8217 138.186 20.5433 136.412 17.6241C135.472 16.1749 134.961 14.5182 134.933 12.824C134.905 11.1299 135.36 9.45917 136.251 7.98327C136.683 7.23944 137.298 6.60185 138.045 6.12286C138.793 5.64387 139.651 5.33712 140.55 5.22781C141.449 5.1185 142.363 5.20974 143.216 5.49404C144.07 5.77834 144.839 6.24759 145.461 6.86327C145.528 6.94408 145.584 7.03253 145.627 7.12647L145.809 7.01847M142.616 17.0361C143.313 17.0266 143.987 16.8023 144.534 16.3981C145.08 15.9938 145.469 15.4323 145.638 14.8009C146.062 13.5125 146.06 12.1345 145.632 10.8473C145.503 10.1901 145.122 9.59951 144.559 9.18688C143.996 8.77425 143.291 8.56809 142.576 8.60727C141.864 8.60592 141.173 8.837 140.623 9.26059C140.073 9.68418 139.699 10.2737 139.565 10.9273C139.32 11.9152 139.273 12.937 139.427 13.9409C139.673 15.7889 140.981 17.0209 142.616 17.0337" fill="white"/>
<path d="M123.319 40.2258C122.43 40.8949 121.385 41.3594 120.268 41.5818C119.152 41.8041 117.995 41.7781 116.891 41.5058C116.034 41.393 115.244 41.0119 114.649 40.425C114.055 39.8381 113.692 39.0802 113.619 38.2754C113.441 37.4138 113.541 36.5221 113.907 35.7139C114.274 34.9057 114.89 34.2175 115.676 33.737C117.05 33.1255 118.531 32.7507 120.047 32.6306C120.714 32.5234 121.384 32.4234 122.043 32.2786C122.343 32.2388 122.619 32.0996 122.819 31.8863C123.019 31.673 123.13 31.3997 123.133 31.1162C123.131 30.834 123.028 30.5605 122.84 30.3397C122.652 30.1189 122.389 29.9638 122.095 29.8994C121.733 29.7291 121.337 29.6321 120.933 29.6149C120.528 29.5977 120.124 29.6606 119.748 29.7996C119.371 29.9386 119.03 30.1504 118.747 30.4212C118.465 30.692 118.247 31.0156 118.108 31.3706C118.06 31.5016 117.966 31.6139 117.842 31.6897C117.718 31.7655 117.57 31.8004 117.422 31.789C116.526 31.789 115.631 31.7842 114.736 31.789C114.182 31.7938 114.056 31.5306 114.112 31.0586C114.177 30.0494 114.603 29.0897 115.322 28.3331C116.041 27.5766 117.01 27.067 118.076 26.8858C119.688 26.5133 121.367 26.4683 122.999 26.7538C125.887 27.2562 127.4 28.877 127.464 31.7226C127.531 34.6778 127.473 37.6354 127.488 40.5914C127.488 41.141 127.265 41.3738 126.671 41.3538C125.966 41.3188 125.26 41.321 124.556 41.3602C123.751 41.4186 123.293 41.169 123.317 40.2218M123.182 35.5818C123.192 34.6634 123.195 34.677 122.211 34.9322C121.639 35.0802 121.053 35.1778 120.472 35.2922C119.885 35.3885 119.318 35.5674 118.789 35.8226C118.409 36.0007 118.11 36.3016 117.95 36.6694C117.789 37.0372 117.777 37.447 117.915 37.8226C118.134 38.5922 118.811 38.7874 119.543 38.8266C120.016 38.8585 120.491 38.7976 120.937 38.6477C121.384 38.4979 121.791 38.2625 122.134 37.9567C122.477 37.6508 122.747 37.2814 122.928 36.8721C123.109 36.4628 123.195 36.0227 123.182 35.5802" fill="white"/>
<path d="M158.53 29.8376C157.39 29.8376 156.251 29.8376 155.111 29.8376C154.784 29.8376 154.393 29.8096 154.4 30.2536C154.302 32.3222 154.342 34.3945 154.519 36.4584C154.522 36.7011 154.576 36.9409 154.68 37.1633C154.784 37.3858 154.936 37.5863 155.125 37.7528C155.314 37.9193 155.537 38.0483 155.781 38.1322C156.025 38.2161 156.285 38.253 156.545 38.2408C156.81 38.2655 157.078 38.2403 157.332 38.1667C157.587 38.093 157.823 37.9724 158.027 37.8121C158.231 37.6517 158.398 37.4548 158.519 37.233C158.64 37.0112 158.712 36.7691 158.731 36.5208C158.91 35.2684 158.943 34.0016 158.83 32.7424C158.818 31.9704 159.094 31.6936 159.907 31.748C160.636 31.7968 161.372 31.7672 162.104 31.7592C162.606 31.7536 162.858 31.9472 162.841 32.4368C162.891 34.0018 162.845 35.5682 162.7 37.128C162.536 38.36 161.903 39.4958 160.917 40.3283C159.93 41.1607 158.656 41.6343 157.326 41.6624C156.596 41.7108 155.861 41.6891 155.136 41.5976C152.136 41.124 150.323 39.308 150.257 36.4648C150.159 32.2464 150.227 28.0256 150.213 23.8056C150.213 23.3256 150.416 23.108 150.929 23.112C151.825 23.1192 152.72 23.1224 153.615 23.112C154.157 23.104 154.409 23.3048 154.386 23.832C154.36 24.5384 154.38 25.2472 154.381 25.9544C154.381 27.0072 154.381 27.0088 155.478 27.0096C157.621 27.0096 159.764 27.032 161.906 26.9984C162.621 26.9872 162.86 27.216 162.849 27.8728C162.798 30.1872 163.106 29.8016 160.807 29.8368C160.047 29.848 159.287 29.8368 158.528 29.8368" fill="white"/>
<path d="M102.955 12.8026C102.955 8.81055 105.09 6.08255 108.874 5.41135C115.076 4.30735 119.293 8.08015 118.588 13.9089C118.525 15.1039 118.119 16.261 117.411 17.2587C116.704 18.2564 115.722 19.0578 114.568 19.5786C111.526 20.9546 106.588 20.5498 104.406 17.5642C103.368 16.1721 102.857 14.4968 102.955 12.8033M114.379 12.8162C114.419 12.0846 114.314 11.3524 114.07 10.6562C113.815 10.051 113.371 9.5313 112.795 9.16455C112.22 8.79781 111.54 8.60089 110.843 8.59934C110.146 8.59778 109.465 8.79167 108.887 9.15585C108.31 9.52003 107.863 10.0377 107.605 10.6417C107.194 11.8768 107.143 13.192 107.459 14.4514C107.623 15.1719 108.047 15.818 108.66 16.2822C109.273 16.7463 110.038 17.0006 110.827 17.0025C111.617 17.0045 112.383 16.7541 112.998 16.293C113.614 15.8318 114.042 15.1878 114.21 14.4682C114.342 13.9269 114.399 13.3724 114.382 12.8178" fill="white"/>
<path d="M102.568 28.6119C103.227 27.8278 104.108 27.2314 105.111 26.89C106.115 26.5486 107.2 26.4758 108.246 26.6799C109.43 26.7614 110.534 27.2721 111.321 28.1029C112.108 28.9338 112.515 30.0188 112.456 31.1263C112.561 34.3071 112.485 37.4927 112.496 40.6759C112.496 41.1559 112.274 41.3623 111.76 41.3551C110.892 41.3423 110.022 41.3223 109.157 41.3639C108.422 41.3991 108.157 41.1559 108.167 40.4519C108.201 37.7231 108.188 34.9943 108.175 32.2655C108.169 30.9791 107.747 30.2831 106.727 30.0903C104.579 29.6839 102.784 30.3231 102.736 32.7919C102.685 35.3175 102.724 37.8447 102.719 40.3711C102.719 41.3151 102.679 41.3471 101.661 41.3527C100.847 41.3567 100.032 41.3407 99.2189 41.3527C98.6875 41.3631 98.4176 41.1927 98.4185 40.6543C98.4282 36.3343 98.4282 32.0143 98.4185 27.6943C98.4185 27.1631 98.6687 26.9847 99.2112 27.0015C99.9701 27.0415 100.731 27.0389 101.489 26.9935C102.338 26.9239 102.627 27.2559 102.537 27.9943C102.533 28.1998 102.544 28.4053 102.568 28.6095" fill="white"/>
<path d="M158.389 20.2864C156.339 20.4491 154.298 19.8891 152.669 18.7168C151.776 18.0359 151.194 17.0636 151.041 15.9968C150.955 15.4752 151.126 15.176 151.766 15.1912C152.714 15.2136 153.665 15.2048 154.615 15.1912C154.708 15.1773 154.803 15.1814 154.894 15.2033C154.986 15.2253 155.071 15.2646 155.145 15.3188C155.22 15.373 155.281 15.441 155.326 15.5184C155.371 15.5959 155.398 15.6811 155.406 15.7688C155.484 16.0667 155.644 16.3402 155.871 16.5621C156.097 16.7839 156.382 16.9463 156.697 17.0328C157.723 17.3936 158.851 17.41 159.888 17.0792C160.158 17.0284 160.403 16.9003 160.591 16.7129C160.779 16.5254 160.899 16.288 160.935 16.0336C160.942 15.7649 160.852 15.5018 160.68 15.2865C160.507 15.0712 160.262 14.9163 159.984 14.8464C158.806 14.4657 157.604 14.1534 156.384 13.9112C155.44 13.6768 154.529 13.3395 153.669 12.9064C152.974 12.5786 152.399 12.0652 152.018 11.4315C151.636 10.7979 151.465 10.0726 151.527 9.34804C151.508 8.63113 151.722 7.92567 152.141 7.3245C152.559 6.72333 153.163 6.25462 153.873 5.98004C155.167 5.44333 156.566 5.16388 157.982 5.15948C159.397 5.15507 160.798 5.4258 162.096 5.95444C162.821 6.25661 163.442 6.73899 163.893 7.3488C164.344 7.95861 164.606 8.67238 164.652 9.41204C164.719 9.88084 164.576 10.132 164.008 10.104C163.412 10.0699 162.814 10.0699 162.218 10.104C161.33 10.1632 160.577 10.1312 160.282 9.11204C160.18 8.88662 160.012 8.69301 159.796 8.55388C159.58 8.41475 159.326 8.33586 159.064 8.32644C158.312 8.21217 157.545 8.21217 156.793 8.32644C156.279 8.40644 155.783 8.59604 155.694 9.18163C155.663 9.42437 155.726 9.66933 155.872 9.87244C156.018 10.0756 156.236 10.2235 156.488 10.2896C157.934 10.7979 159.415 11.2133 160.922 11.5328C161.389 11.6648 161.858 11.7888 162.321 11.9328C163.028 12.0896 163.668 12.4399 164.16 12.9388C164.652 13.4377 164.973 14.0625 165.082 14.7328C165.259 15.4924 165.214 16.2823 164.951 17.02C164.689 17.7577 164.22 18.4161 163.591 18.9264C162.337 19.9216 160.854 20.2936 158.391 20.2928" fill="white"/>
<path d="M129.545 18.5922C128.767 19.3897 127.749 19.9477 126.624 20.1922C125.822 20.4054 124.977 20.4379 124.159 20.2872C123.341 20.1364 122.573 19.8067 121.918 19.325C121.264 18.8434 120.74 18.2236 120.392 17.5165C120.044 16.8095 119.88 16.0354 119.914 15.2578C119.896 12.3522 119.932 9.44664 119.895 6.54184C119.885 5.80664 120.145 5.54904 120.923 5.60344C121.654 5.65169 122.388 5.65169 123.119 5.60344C123.848 5.55784 124.117 5.78024 124.105 6.49304C124.064 8.94344 124.088 11.3938 124.091 13.8442C124.083 14.122 124.095 14.3999 124.127 14.6762C124.365 16.3354 125.104 17.017 126.623 16.9962C126.991 17.0087 127.358 16.9532 127.703 16.8329C128.048 16.7125 128.364 16.5297 128.633 16.2949C128.903 16.0602 129.119 15.7781 129.271 15.4649C129.423 15.1516 129.507 14.8135 129.519 14.4698C129.595 13.185 129.559 11.8938 129.564 10.6058C129.57 9.19144 129.578 7.77624 129.564 6.36184C129.559 5.82264 129.771 5.58024 130.38 5.60584C131.193 5.64791 132.008 5.64791 132.82 5.60584C133.592 5.55784 133.866 5.80904 133.856 6.54504C133.819 9.22264 133.841 11.901 133.841 14.5786C133.841 15.9936 133.841 17.4085 133.841 18.8234C133.841 19.9746 133.841 19.9746 132.566 19.9762C131.966 19.9762 131.366 19.941 130.776 19.985C130.024 20.041 129.633 19.8146 129.725 19.061C129.75 18.9755 129.746 18.8849 129.715 18.8012C129.683 18.7175 129.625 18.6449 129.548 18.593" fill="white"/>
<path d="M169.923 33.8304C169.918 33.1766 169.964 32.5234 170.062 31.876C170.793 27.796 174.141 26.3608 177.869 26.6264C179.626 26.6855 181.291 27.3796 182.51 28.5624C183.3 29.3705 183.82 30.3761 184.007 31.456C184.116 31.9976 183.921 32.2672 183.292 32.256C182.37 32.2352 181.447 32.2432 180.525 32.256C180.337 32.2756 180.149 32.23 179.995 32.1278C179.841 32.0256 179.734 31.8741 179.692 31.7024C179.497 31.18 179.128 30.7294 178.64 30.4159C178.152 30.1025 177.569 29.9425 176.976 29.9593C176.384 29.9761 175.813 30.1687 175.345 30.5092C174.878 30.8497 174.54 31.3203 174.379 31.8528C173.854 33.4911 173.965 35.2496 174.691 36.8192C174.86 37.28 175.182 37.6789 175.609 37.9584C176.037 38.2379 176.548 38.3835 177.07 38.3744C177.66 38.3955 178.24 38.228 178.714 37.8995C179.188 37.571 179.528 37.1012 179.677 36.568C179.701 36.3935 179.798 36.2349 179.947 36.1265C180.095 36.018 180.283 35.9683 180.471 35.988C181.42 36.0008 182.37 35.9992 183.32 35.988C183.907 35.9824 184.063 36.2104 183.948 36.7472C183.614 38.087 182.826 39.2908 181.702 40.18C180.577 41.0693 179.176 41.5966 177.705 41.684C172.419 42.0136 170.062 38.656 169.924 34.8256C169.913 34.548 169.924 34.2696 169.924 33.8336" fill="white"/>
<path d="M129.025 31.5394C129.025 28.6082 129.049 25.6778 129.008 22.7474C128.997 21.9994 129.213 21.6754 130.054 21.7346C130.786 21.7792 131.519 21.7792 132.251 21.7346C132.99 21.697 133.23 21.957 133.227 22.6554C133.2 28.2386 133.212 33.8226 133.212 39.4066C133.212 39.7858 133.186 40.1666 133.218 40.5434C133.266 41.121 133.032 41.3794 132.387 41.357C131.547 41.3274 130.705 41.3282 129.865 41.357C129.232 41.3786 129.008 41.1466 129.016 40.557C129.039 37.5506 129.027 34.5442 129.026 31.537" fill="white"/>
<path d="M97.5791 10.2009C97.5791 7.2953 97.5791 4.38864 97.5791 1.4809C97.5791 0.457704 97.5834 0.456904 98.7156 0.454504C99.4484 0.454504 100.182 0.482504 100.913 0.446504C101.55 0.415304 101.77 0.644904 101.765 1.2353C101.74 3.4081 101.756 5.5809 101.756 7.75451C101.756 11.4436 101.756 15.1326 101.756 18.8217C101.756 19.9705 101.756 19.9713 100.486 19.9721C99.8084 19.9721 99.1278 19.9417 98.4516 19.9801C97.7754 20.0185 97.5628 19.7601 97.568 19.1433C97.5928 16.1617 97.5791 13.1801 97.5791 10.1985" fill="white"/>
<path d="M168.558 34.1676C168.558 36.2628 168.533 38.358 168.573 40.4524C168.587 41.1556 168.316 41.3988 167.584 41.3636C166.746 41.3228 165.904 41.3388 165.064 41.358C164.521 41.3708 164.268 41.1772 164.269 40.6548C164.276 36.3391 164.276 32.0231 164.269 27.7068C164.269 27.194 164.495 26.9868 165.053 27.0028C165.946 27.03 166.843 27.038 167.735 27.0028C168.394 26.9748 168.573 27.2428 168.567 27.81C168.544 29.93 168.558 32.05 168.558 34.17" fill="white"/>
<path d="M166.404 25.4463C164.268 25.4463 164.262 25.4463 164.269 23.4423C164.269 21.5863 164.108 21.7503 166.12 21.7463C168.559 21.7415 168.569 21.7463 168.556 23.7759C168.544 25.7023 168.798 25.4175 166.728 25.4463C166.62 25.4463 166.512 25.4463 166.404 25.4463Z" fill="white"/>
</g>
</svg>
