<svg width="166" height="106" viewBox="0 0 166 106" fill="none" xmlns="http://www.w3.org/2000/svg">
<path opacity="0.27" d="M53.7395 105.664C83.4189 105.664 107.479 82.0106 107.479 52.8322C107.479 23.6538 83.4189 0 53.7395 0C24.06 0 0 23.6538 0 52.8322C0 82.0106 24.06 105.664 53.7395 105.664Z" fill="#EFCC85"/>
<path d="M80.7563 44.4313H126.562C126.854 44.4255 127.145 44.477 127.417 44.5829C127.688 44.6888 127.936 44.847 128.145 45.0481C128.353 45.2492 128.519 45.4892 128.632 45.7542C128.746 46.0191 128.804 46.3036 128.804 46.5909C128.804 46.8783 128.746 47.1627 128.632 47.4277C128.519 47.6926 128.353 47.9326 128.145 48.1338C127.936 48.3349 127.688 48.493 127.417 48.5989C127.145 48.7048 126.854 48.7563 126.562 48.7505H80.7563C80.1815 48.739 79.6342 48.5064 79.2318 48.1026C78.8294 47.6989 78.604 47.1562 78.604 46.5909C78.604 46.0257 78.8294 45.4829 79.2318 45.0792C79.6342 44.6754 80.1815 44.4428 80.7563 44.4313ZM74.6653 46.5887C74.6653 47.7404 74.3179 48.8663 73.667 49.824C73.0162 50.7816 72.0911 51.528 71.0087 51.9688C69.9264 52.4095 68.7354 52.5248 67.5864 52.3001C66.4373 52.0754 65.3819 51.5208 64.5535 50.7064C63.7251 49.892 63.161 48.8544 62.9324 47.7247C62.7038 46.5951 62.8211 45.4242 63.2695 44.3602C63.7178 43.2961 64.477 42.3866 65.4511 41.7467C66.4252 41.1068 67.5704 40.7653 68.7419 40.7653C70.3129 40.7653 71.8195 41.3788 72.9304 42.4709C74.0412 43.563 74.6653 45.0442 74.6653 46.5887ZM70.272 46.5887C70.272 46.2917 70.1824 46.0014 70.0146 45.7545C69.8468 45.5075 69.6082 45.3151 69.3292 45.2014C69.0501 45.0878 68.743 45.0581 68.4467 45.116C68.1504 45.1739 67.8783 45.3169 67.6647 45.5269C67.4511 45.7369 67.3056 46.0045 67.2467 46.2957C67.1878 46.587 67.218 46.8889 67.3336 47.1633C67.4492 47.4376 67.645 47.6722 67.8961 47.8371C68.1473 48.0021 68.4426 48.0902 68.7447 48.0902C69.1492 48.0885 69.5367 47.9298 69.8228 47.6486C70.1089 47.3674 70.2703 46.9864 70.272 46.5887ZM166 18.2352C165.999 18.6552 165.913 19.0709 165.746 19.4579C165.58 19.8449 165.337 20.1955 165.032 20.4893L149.778 35.4858C149.327 35.937 148.749 36.2453 148.118 36.3711C147.487 36.4969 146.832 36.4344 146.238 36.1917C145.642 35.95 145.133 35.54 144.775 35.0138C144.417 34.4875 144.225 33.8685 144.225 33.2353V29.5011H142.017C142.336 30.2962 142.5 31.1433 142.5 31.998V61.174C142.499 62.9799 141.769 64.7117 140.47 65.9891C139.172 67.2665 137.411 67.9851 135.574 67.9873H108.51C108.51 68.0034 108.51 68.0195 108.51 68.0357V81.8782C108.508 83.0361 108.039 84.146 107.207 84.9647C106.374 85.7834 105.245 86.2441 104.067 86.2458H47.355V89.9799C47.3543 90.6091 47.1648 91.224 46.8101 91.7477C46.4554 92.2715 45.9513 92.6806 45.3611 92.9238C44.9603 93.0869 44.5309 93.1712 44.0971 93.172C43.6698 93.1722 43.2466 93.0886 42.8525 92.9261C42.4583 92.7637 42.1011 92.5257 41.8016 92.2259L26.5339 77.2106C26.2308 76.913 25.9906 76.5594 25.8273 76.1701C25.6639 75.7808 25.5806 75.3635 25.5821 74.9424C25.5836 74.5213 25.67 74.1046 25.8362 73.7165C26.0023 73.3283 26.2451 72.9764 26.5503 72.6809L41.8034 57.6862C42.254 57.2347 42.8317 56.9261 43.4622 56.8003C44.0927 56.6745 44.7471 56.7372 45.341 56.9802C45.9364 57.222 46.4455 57.6319 46.8038 58.1582C47.1621 58.6845 47.3536 59.3034 47.3541 59.9367V63.6708H49.5621C49.2429 62.8758 49.079 62.0287 49.0791 61.174V32.0034C49.0801 30.1975 49.8099 28.4657 51.1084 27.1883C52.4069 25.9109 54.1679 25.1922 56.0049 25.1901H83.0701C83.0701 25.1739 83.0701 25.1578 83.0701 25.1417V11.2955C83.0718 10.1377 83.5404 9.02775 84.3731 8.20904C85.2059 7.39033 86.3349 6.92965 87.5126 6.92799H144.228V3.19298C144.228 2.56045 144.42 1.94222 144.778 1.41676C145.136 0.891294 145.645 0.482281 146.24 0.241633C146.835 0.000986219 147.489 -0.0604489 148.12 0.0651283C148.75 0.190706 149.329 0.497635 149.782 0.946956L165.049 15.9569C165.354 16.2551 165.596 16.6103 165.759 17.0016C165.922 17.3929 166.004 17.8123 166 18.2352ZM104.071 67.9828H45.1588C44.8702 67.9829 44.5845 67.9271 44.3178 67.8186C44.0512 67.7101 43.809 67.551 43.6049 67.3504C43.4009 67.1498 43.239 66.9116 43.1287 66.6495C43.0183 66.3874 42.9615 66.1065 42.9617 65.8228V62.6522L30.4506 74.9556L42.9617 87.2554V84.0848C42.9615 83.8012 43.0183 83.5202 43.1287 83.2581C43.239 82.996 43.4009 82.7578 43.6049 82.5572C43.809 82.3566 44.0512 82.1975 44.3178 82.089C44.5845 81.9805 44.8702 81.9247 45.1588 81.9248H104.071C104.083 81.923 104.095 81.9174 104.103 81.9086C104.112 81.8999 104.118 81.8886 104.12 81.8764V68.0348C104.119 68.0219 104.113 68.0098 104.104 68.0004C104.096 67.991 104.084 67.9848 104.071 67.9828ZM135.579 29.502H56.0022C55.3299 29.5037 54.6857 29.7675 54.2111 30.2357C53.7364 30.7038 53.4701 31.3379 53.4706 31.9989V61.174C53.4704 61.8348 53.7367 62.4688 54.2113 62.9369C54.6859 63.405 55.3299 63.6689 56.0022 63.6708H135.575C136.247 63.6692 136.891 63.4053 137.366 62.9372C137.84 62.4691 138.107 61.8349 138.106 61.174V31.9998C138.107 31.3398 137.841 30.7065 137.368 30.2388C136.894 29.7712 136.251 29.5075 135.579 29.5056V29.502ZM161.132 18.2137L148.62 5.91652V9.08712C148.62 9.37081 148.563 9.65174 148.453 9.91386C148.342 10.176 148.181 10.4141 147.977 10.6147C147.773 10.8153 147.53 10.9744 147.264 11.083C146.997 11.1915 146.711 11.2473 146.423 11.2471H87.5108C87.4984 11.2489 87.4869 11.2546 87.4781 11.2633C87.4692 11.272 87.4634 11.2833 87.4616 11.2955V25.1381C87.4634 25.1503 87.4692 25.1616 87.4781 25.1703C87.4869 25.179 87.4984 25.1847 87.5108 25.1865H146.419C146.708 25.1864 146.993 25.2421 147.26 25.3507C147.527 25.4592 147.769 25.6183 147.973 25.8189C148.177 26.0195 148.339 26.2576 148.449 26.5197C148.56 26.7819 148.616 27.0628 148.616 27.3465V30.5171L161.132 18.2137Z" fill="black"/>
</svg>
