<svg width="133" height="118" viewBox="0 0 133 118" fill="none" xmlns="http://www.w3.org/2000/svg">
<path opacity="0.27" d="M50.8384 101.634C78.9157 101.634 101.677 78.8825 101.677 50.817C101.677 22.7516 78.9157 0 50.8384 0C22.7611 0 0 22.7516 0 50.817C0 78.8825 22.7611 101.634 50.8384 101.634Z" fill="#EFCC85"/>
<path d="M41.708 69.9991H44.2443C44.6927 69.9991 45.1228 69.821 45.44 69.504C45.7571 69.187 45.9352 68.7571 45.9352 68.3088C45.9352 67.8605 45.7571 67.4306 45.44 67.1136C45.1228 66.7966 44.6927 66.6185 44.2443 66.6185H41.708C39.8202 66.6201 37.9506 66.2496 36.2062 65.5282C34.4618 64.8068 32.8768 63.7487 31.542 62.4144C30.2071 61.0801 29.1485 59.4958 28.4268 57.7521C27.7051 56.0084 27.3345 54.1396 27.3361 52.2526C27.3413 49.1424 28.3466 46.1163 30.2038 43.6208C32.0609 41.1253 34.6715 39.2927 37.6501 38.3935C38.0535 38.2469 38.3927 37.9637 38.609 37.5932C38.8252 37.2226 38.9047 36.788 38.8338 36.3649C37.345 31.5317 37.7451 26.314 39.9535 21.764C42.1619 17.2141 46.0143 13.6705 50.7336 11.848C55.4529 10.0255 60.688 10.0596 65.3832 11.9434C70.0783 13.8273 73.8841 17.4208 76.033 21.9991C76.1306 22.2331 76.2807 22.4415 76.4717 22.6084C76.6627 22.7752 76.8895 22.896 77.1346 22.9613C77.3796 23.0267 77.6365 23.0349 77.8852 22.9854C78.134 22.9358 78.368 22.8298 78.5693 22.6755C80.6109 21.3132 82.9269 20.4157 85.3536 20.0464C87.7803 19.6771 90.2585 19.845 92.6132 20.5382C94.9679 21.2314 97.1415 22.4331 98.9806 24.0582C100.82 25.6834 102.279 27.6924 103.256 29.9433C103.385 30.2761 103.621 30.5564 103.928 30.7401C104.234 30.9238 104.592 31.0003 104.947 30.9576C106.631 30.7795 108.333 30.9571 109.944 31.4789C111.555 32.0006 113.038 32.8549 114.298 33.9863C115.557 35.1177 116.564 36.501 117.255 38.0466C117.945 39.5921 118.303 41.2654 118.305 42.958V43.1304C118.25 43.5542 118.36 43.9828 118.612 44.3284C118.863 44.674 119.237 44.9104 119.657 44.9891C122.324 45.4546 124.72 46.9027 126.371 49.0476C128.021 51.1925 128.808 53.8782 128.574 56.5742C128.34 59.2703 127.104 61.7808 125.109 63.61C123.113 65.4391 120.504 66.4539 117.797 66.4539H111.71C111.261 66.4539 110.831 66.632 110.514 66.949C110.197 67.266 110.019 67.6959 110.019 68.1442C110.019 68.5925 110.197 69.0224 110.514 69.3394C110.831 69.6564 111.261 69.8345 111.71 69.8345H117.797C121.241 69.8394 124.569 68.5929 127.162 66.3272C129.754 64.0615 131.435 60.931 131.89 57.5188C132.345 54.1067 131.544 50.6455 129.635 47.78C127.727 44.9144 124.842 42.84 121.517 41.9429C121.27 37.9329 119.475 34.1754 116.509 31.4634C113.544 28.7515 109.64 27.2971 105.623 27.4073C104.392 24.9985 102.693 22.8599 100.623 21.1174C98.554 19.3749 96.157 18.0636 93.5733 17.2607C90.9896 16.4578 88.2713 16.1795 85.5784 16.4421C82.8855 16.7047 80.2723 17.503 77.8926 18.79C75.1228 13.9138 70.691 10.1959 65.4063 8.3151C60.1216 6.43425 54.3364 6.51587 49.1069 8.54506C43.8774 10.5743 39.5524 14.4157 36.9214 19.368C34.2903 24.3204 33.5289 30.0534 34.7759 35.5205C31.5818 37.0117 28.8725 39.3722 26.9585 42.3314C25.0446 45.2907 24.0033 48.7291 23.9541 52.2526C23.9538 54.5832 24.4129 56.891 25.305 59.0442C26.1972 61.1974 27.5049 63.1538 29.1536 64.8018C30.8022 66.4497 32.7595 67.7569 34.9136 68.6487C37.0677 69.5404 39.3764 69.9993 41.708 69.9991Z" fill="black"/>
<path d="M48.472 30.6189C48.486 27.8441 49.595 25.187 51.5579 23.2249C53.5208 21.2628 56.179 20.1543 58.955 20.1403C59.1805 20.1539 59.4064 20.1194 59.6177 20.0393C59.8289 19.9592 60.0208 19.8352 60.1805 19.6755C60.3403 19.5158 60.4644 19.324 60.5445 19.1128C60.6247 18.9017 60.6591 18.6759 60.6455 18.4504C60.6593 18.2249 60.6249 17.999 60.5448 17.7878C60.4647 17.5765 60.3407 17.3846 60.1809 17.2248C60.0211 17.065 59.8292 16.9409 59.6179 16.8607C59.4066 16.7806 59.1806 16.7461 58.955 16.7597C55.2829 16.7763 51.7658 18.2417 49.1692 20.8373C46.5726 23.4328 45.1065 26.9483 45.09 30.6189C45.0764 30.8444 45.1108 31.0701 45.191 31.2813C45.2711 31.4925 45.3952 31.6843 45.555 31.844C45.7147 32.0037 45.9066 32.1277 46.1179 32.2078C46.3291 32.2879 46.555 32.3223 46.7805 32.3088C47.2288 32.3081 47.6585 32.1299 47.9755 31.8131C48.2925 31.4964 48.471 31.067 48.472 30.6189Z" fill="black"/>
<path d="M43.0615 76.4224C42.6747 76.7727 42.4333 77.2551 42.3847 77.7745V83.8591C41.1547 84.1716 40.0371 84.8226 39.1588 85.7383C38.2805 86.654 37.6767 87.7975 37.4162 89.0391C37.1556 90.2806 37.2487 91.5703 37.6849 92.7616C38.121 93.9528 38.8827 94.998 39.8834 95.7781C40.8841 96.5583 42.0837 97.0422 43.3458 97.1749C44.6079 97.3077 45.8819 97.0838 47.0232 96.5289C48.1644 95.9739 49.1269 95.1101 49.8015 94.0356C50.4761 92.9611 50.8356 91.7191 50.8393 90.4505C50.8268 88.9497 50.3247 87.4939 49.4092 86.3042C48.4937 85.1146 47.2148 84.2561 45.7667 83.8591V78.619L55.5739 70.8445C55.9606 70.4942 56.2021 70.0118 56.2506 69.4924V61.3801H64.7051V71.8587L59.9705 76.5913C59.8054 76.7401 59.6745 76.9229 59.587 77.1272C59.4995 77.3315 59.4574 77.5523 59.4636 77.7745V92.6479C58.2335 92.96 57.1156 93.6109 56.237 94.5264C55.3584 95.442 54.7544 96.5855 54.4936 97.8271C54.2328 99.0686 54.3257 100.358 54.7617 101.55C55.1977 102.741 55.9593 103.787 56.96 104.567C57.9607 105.347 59.1603 105.831 60.4226 105.964C61.6848 106.097 62.9589 105.873 64.1002 105.318C65.2415 104.763 66.2042 103.899 66.8788 102.825C67.5534 101.75 67.9129 100.508 67.9164 99.2393C67.904 97.7384 67.4019 96.2826 66.4864 95.093C65.5709 93.9033 64.292 93.0449 62.8439 92.6479V78.4501L67.5785 73.7175C67.7436 73.5687 67.8745 73.3858 67.962 73.1816C68.0495 72.9773 68.0916 72.7564 68.0854 72.5343V61.3801H76.371V104.647C75.141 104.96 74.0233 105.611 73.145 106.527C72.2667 107.442 71.663 108.586 71.4024 109.827C71.1419 111.069 71.235 112.359 71.6711 113.55C72.1072 114.741 72.8689 115.786 73.8696 116.566C74.8703 117.347 76.0699 117.831 77.332 117.963C78.5941 118.096 79.8682 117.872 81.0094 117.317C82.1506 116.762 83.1132 115.898 83.7878 114.824C84.4624 113.749 84.8219 112.507 84.8255 111.239C84.8131 109.738 84.311 108.282 83.3955 107.093C82.4799 105.903 81.201 105.044 79.7529 104.647V61.3801H88.0376V72.5343C88.0314 72.7564 88.0735 72.9773 88.161 73.1816C88.2485 73.3858 88.3794 73.5687 88.5446 73.7175L93.2792 78.4501V92.6479C92.0492 92.9604 90.9315 93.6114 90.0532 94.5271C89.1749 95.4427 88.5712 96.5863 88.3106 97.8278C88.0501 99.0694 88.1432 100.359 88.5793 101.55C89.0154 102.742 89.7771 103.787 90.7778 104.567C91.7785 105.347 92.9781 105.831 94.2402 105.964C95.5023 106.096 96.7764 105.873 97.9176 105.318C99.0588 104.763 100.021 103.899 100.696 102.824C101.371 101.75 101.73 100.508 101.734 99.2393C101.721 97.7384 101.219 96.2826 100.304 95.093C99.3881 93.9033 98.1092 93.0449 96.6611 92.6479V77.7745C96.6674 77.5523 96.6253 77.3315 96.5378 77.1272C96.4502 76.9229 96.3194 76.7401 96.1542 76.5913L91.4196 71.8587V61.3801H99.8742V69.4924C99.8609 69.7569 99.9162 70.0204 100.035 70.2573C100.153 70.4942 100.331 70.6965 100.551 70.8445L110.357 78.619V83.8583C109.127 84.1707 108.01 84.8218 107.131 85.7374C106.253 86.6531 105.649 87.7967 105.389 89.0382C105.128 90.2797 105.221 91.5694 105.657 92.7607C106.093 93.952 106.855 94.9971 107.856 95.7773C108.857 96.5574 110.056 97.0414 111.318 97.1741C112.58 97.3068 113.854 97.083 114.996 96.528C116.137 95.9731 117.099 95.1093 117.774 94.0348C118.449 92.9603 118.808 91.7182 118.812 90.4496C118.799 88.9488 118.297 87.493 117.382 86.3033C116.466 85.1137 115.187 84.2552 113.739 83.8583V77.7745C113.752 77.5099 113.697 77.2464 113.579 77.0095C113.46 76.7727 113.282 76.5704 113.062 76.4224L103.256 68.647V61.3801H106.13C106.887 61.3869 107.638 61.2429 108.339 60.9565C109.04 60.6701 109.677 60.2471 110.212 59.7122C110.748 59.1772 111.171 58.541 111.458 57.8407C111.745 57.1404 111.889 56.39 111.883 55.6332V46.3377C111.889 45.581 111.745 44.8306 111.458 44.1302C111.171 43.4299 110.748 42.7937 110.212 42.2588C109.677 41.7238 109.04 41.3008 108.339 41.0144C107.638 40.7281 106.887 40.5841 106.13 40.5909H49.9935C49.2368 40.5845 48.4863 40.7289 47.7859 41.0155C47.0855 41.302 46.4492 41.7251 45.9141 42.26C45.379 42.7949 44.9557 43.431 44.669 44.1311C44.3823 44.8311 44.2379 45.5813 44.2443 46.3377V55.8021C44.2379 56.5586 44.3823 57.3087 44.669 58.0088C44.9557 58.7089 45.379 59.3449 45.9141 59.8798C46.4492 60.4147 47.0855 60.8378 47.7859 61.1244C48.4863 61.411 49.2368 61.5553 49.9935 61.549H52.8678V68.8168L43.0615 76.4224ZM47.4581 90.2816C47.4581 90.9502 47.2598 91.6038 46.8882 92.1597C46.5165 92.7157 45.9884 93.149 45.3704 93.4048C44.7524 93.6607 44.0724 93.7277 43.4164 93.5972C42.7603 93.4668 42.1577 93.1448 41.6847 92.672C41.2117 92.1992 40.8896 91.5969 40.7591 90.9411C40.6286 90.2854 40.6956 89.6056 40.9516 88.9879C41.2076 88.3702 41.641 87.8422 42.1972 87.4708C42.7534 87.0993 43.4073 86.901 44.0761 86.901C44.9722 86.9038 45.8307 87.2608 46.4642 87.8943C47.0978 88.5277 47.4548 89.3859 47.4573 90.2816H47.4581ZM64.5362 99.0712C64.5362 99.7399 64.3378 100.393 63.9662 100.949C63.5946 101.505 63.0664 101.939 62.4484 102.194C61.8304 102.45 61.1504 102.517 60.4944 102.387C59.8383 102.256 59.2357 101.934 58.7628 101.462C58.2898 100.989 57.9677 100.387 57.8372 99.7308C57.7067 99.075 57.7737 98.3953 58.0296 97.7776C58.2856 97.1598 58.7191 96.6319 59.2752 96.2604C59.8314 95.8889 60.4853 95.6907 61.1542 95.6907C62.0501 95.6934 62.9085 96.0504 63.542 96.6836C64.1755 97.3168 64.5326 98.1749 64.5353 99.0704L64.5362 99.0712ZM81.4444 111.241C81.4444 111.909 81.246 112.563 80.8744 113.119C80.5028 113.675 79.9746 114.108 79.3566 114.364C78.7386 114.62 78.0586 114.687 77.4026 114.556C76.7465 114.426 76.1439 114.104 75.671 113.631C75.198 113.158 74.8759 112.556 74.7454 111.9C74.6149 111.244 74.6819 110.565 74.9378 109.947C75.1938 109.329 75.6273 108.801 76.1834 108.43C76.7396 108.058 77.3935 107.86 78.0624 107.86C78.9581 107.863 79.8164 108.22 80.4499 108.853C81.0833 109.486 81.4405 110.343 81.4435 111.239L81.4444 111.241ZM98.3483 99.0704C98.3483 99.739 98.1499 100.393 97.7783 100.949C97.4067 101.504 96.8785 101.938 96.2605 102.194C95.6425 102.449 94.9625 102.516 94.3065 102.386C93.6504 102.256 93.0478 101.934 92.5748 101.461C92.1019 100.988 91.7798 100.386 91.6493 99.7299C91.5188 99.0741 91.5857 98.3944 91.8417 97.7767C92.0977 97.159 92.5312 96.631 93.0873 96.2595C93.6435 95.8881 94.2974 95.6898 94.9663 95.6898C95.8625 95.6923 96.7212 96.0493 97.3549 96.6827C97.9886 97.3162 98.3458 98.1746 98.3483 99.0704ZM115.426 90.2808C115.426 90.9494 115.228 91.603 114.856 92.1589C114.485 92.7148 113.957 93.1481 113.339 93.404C112.721 93.6598 112.041 93.7268 111.385 93.5964C110.728 93.4659 110.126 93.1439 109.653 92.6712C109.18 92.1984 108.858 91.596 108.727 90.9403C108.597 90.2845 108.664 89.6048 108.92 88.9871C109.176 88.3693 109.609 87.8414 110.165 87.4699C110.722 87.0985 111.375 86.9002 112.044 86.9002C112.941 86.9018 113.801 87.2585 114.436 87.8922C115.07 88.5259 115.427 89.3851 115.43 90.2816L115.426 90.2808ZM47.6262 55.8021V46.5066C47.6186 46.1938 47.6745 45.8826 47.7908 45.5921C47.907 45.3015 48.0811 45.0376 48.3025 44.8163C48.5239 44.595 48.7879 44.421 49.0786 44.3048C49.3693 44.1886 49.6806 44.1326 49.9935 44.1403H106.13C106.443 44.1326 106.755 44.1886 107.045 44.3048C107.336 44.421 107.6 44.595 107.821 44.8163C108.043 45.0376 108.217 45.3015 108.333 45.5921C108.449 45.8826 108.505 46.1938 108.498 46.5066V55.8021C108.506 56.1151 108.45 56.4264 108.334 56.7172C108.217 57.008 108.043 57.2721 107.822 57.4936C107.601 57.715 107.337 57.8892 107.046 58.0055C106.755 58.1218 106.443 58.1778 106.13 58.1701H49.9935C49.3791 58.1295 48.8003 57.8671 48.3648 57.4319C47.9294 56.9966 47.6669 56.418 47.6262 55.8038V55.8021Z" fill="black"/>
<path d="M56.5877 52.7602C57.0362 52.7602 57.4663 52.5821 57.7834 52.2651C58.1005 51.9481 58.2787 51.5182 58.2787 51.0699C58.2787 50.6216 58.1005 50.1917 57.7834 49.8747C57.4663 49.5577 57.0362 49.3796 56.5877 49.3796H54.5583C54.1098 49.3796 53.6797 49.5577 53.3626 49.8747C53.0455 50.1917 52.8673 50.6216 52.8673 51.0699C52.8673 51.5182 53.0455 51.9481 53.3626 52.2651C53.6797 52.5821 54.1098 52.7602 54.5583 52.7602H56.5877Z" fill="black"/>
<path d="M63.6887 52.7602H65.7181C66.1666 52.7602 66.5967 52.5821 66.9138 52.2651C67.2309 51.9482 67.4091 51.5182 67.4091 51.0699C67.4091 50.6216 67.2309 50.1917 66.9138 49.8747C66.5967 49.5577 66.1666 49.3797 65.7181 49.3797H63.6887C63.4632 49.3661 63.2373 49.4005 63.0261 49.4806C62.8148 49.5607 62.6229 49.6847 62.4632 49.8445C62.3034 50.0042 62.1793 50.1959 62.0992 50.4071C62.019 50.6183 61.9846 50.8441 61.9982 51.0695C61.9989 51.5176 62.1772 51.9471 62.494 52.264C62.8109 52.5809 63.2405 52.7593 63.6887 52.7602Z" fill="black"/>
<path d="M72.82 52.7602H74.8494C75.2978 52.7602 75.728 52.5821 76.0451 52.2651C76.3622 51.9482 76.5404 51.5182 76.5404 51.0699C76.5404 50.6216 76.3622 50.1917 76.0451 49.8747C75.728 49.5577 75.2978 49.3797 74.8494 49.3797H72.82C72.5945 49.3661 72.3686 49.4005 72.1573 49.4806C71.9461 49.5607 71.7542 49.6847 71.5944 49.8445C71.4347 50.0042 71.3106 50.1959 71.2304 50.4071C71.1503 50.6183 71.1159 50.8441 71.1294 51.0695C71.1304 51.5174 71.3088 51.9467 71.6256 52.2634C71.9424 52.5801 72.3719 52.7593 72.82 52.7602Z" fill="black"/>
</svg>
