<svg width="140" height="118" viewBox="0 0 140 118" fill="none" xmlns="http://www.w3.org/2000/svg">
<path opacity="0.27" d="M47.1677 92.8233C73.2176 92.8233 94.3353 72.0441 94.3353 46.4117C94.3353 20.7792 73.2176 0 47.1677 0C21.1177 0 0 20.7792 0 46.4117C0 72.0441 21.1177 92.8233 47.1677 92.8233Z" fill="#EFCC85"/>
<path fill-rule="evenodd" clip-rule="evenodd" d="M45.016 93.0743C44.676 94.731 43.7348 96.2093 42.3683 97.2332C41.0018 98.2571 39.3032 98.7567 37.5898 98.6386C35.8764 98.5206 34.2651 97.793 33.0569 96.5917C31.8487 95.3904 31.1261 93.7975 31.024 92.1104C30.9219 90.4233 31.4473 88.7573 32.502 87.4234C33.5568 86.0895 35.0689 85.1789 36.756 84.8616C38.4431 84.5443 40.1898 84.842 41.6702 85.6991C43.1506 86.5562 44.2634 87.9141 44.8008 89.5193H55.1748V77.8997H53.7903C51.2357 77.9006 48.7128 77.3444 46.4028 76.271C44.0929 75.1977 42.0535 73.6339 40.4314 71.6921C38.8092 69.7503 37.6446 67.4789 37.0214 65.0413C36.3982 62.6036 36.3319 60.0603 36.8272 57.5945C36.9273 57.1387 37.2054 56.7399 37.6015 56.4839C37.9976 56.228 38.48 56.1354 38.9448 56.2261C39.4096 56.3169 39.8196 56.5837 40.0865 56.969C40.3533 57.3543 40.4556 57.8274 40.3713 58.2862C39.9802 60.2365 40.0332 62.2477 40.5265 64.1754C41.0199 66.103 41.9413 67.8991 43.2245 69.4345C44.5078 70.9698 46.1209 72.2062 47.9478 73.0546C49.7747 73.9031 51.7701 74.3427 53.7903 74.3416H115.577C118.894 74.3451 122.099 73.1619 124.596 71.0122C127.092 68.8626 128.709 65.8933 129.145 62.6575C129.581 59.4218 128.807 56.1404 126.966 53.4249C125.125 50.7093 122.344 48.7448 119.141 47.8975C118.79 47.8038 118.476 47.6082 118.24 47.3362C118.004 47.0643 117.857 46.7286 117.818 46.373C117.478 43.3385 116.445 40.419 114.795 37.8336C113.144 35.2482 110.921 33.0641 108.29 31.4451C105.66 29.8261 102.691 28.8142 99.6066 28.4853C96.522 28.1565 93.4017 28.5193 90.48 29.5464C90.1627 29.6586 89.8199 29.6812 89.4903 29.6116C89.1607 29.5421 88.8574 29.3832 88.6147 29.1529C84.8297 25.5391 79.8909 23.3246 74.6358 22.8851C74.3948 22.8715 74.1589 22.8105 73.9422 22.7057C73.7254 22.6008 73.5323 22.4543 73.3741 22.2748C73.2159 22.0953 73.0958 21.8864 73.0211 21.6604C72.9463 21.4345 72.9184 21.1961 72.9389 20.9593C72.9593 20.7226 73.0278 20.4922 73.1403 20.282C73.2528 20.0717 73.407 19.8858 73.5937 19.7351C73.7805 19.5845 73.9961 19.4722 74.2277 19.4049C74.4593 19.3377 74.7022 19.3168 74.9422 19.3435C80.649 19.8197 86.0446 22.1059 90.3176 25.8584C93.6204 24.8632 97.1018 24.5762 100.527 25.0169C103.952 25.4577 107.241 26.6158 110.173 28.4133C113.104 30.2108 115.61 32.6059 117.522 35.4371C119.433 38.2683 120.705 41.4698 121.252 44.8258C125.113 46.1443 128.373 48.766 130.456 52.2256C132.538 55.6851 133.307 59.7587 132.627 63.7234C131.947 67.688 129.861 71.2873 126.74 73.8824C123.618 76.4775 119.664 77.9005 115.578 77.8989H114.195V89.5185H125.383C125.92 87.9129 127.033 86.5546 128.514 85.6972C129.995 84.8398 131.742 84.542 133.429 84.8593C135.117 85.1767 136.629 86.0875 137.684 87.4217C138.74 88.7559 139.265 90.4223 139.163 92.1098C139.061 93.7974 138.338 95.3906 137.129 96.5922C135.921 97.7938 134.309 98.5215 132.595 98.6395C130.882 98.7575 129.183 98.2578 127.816 97.2336C126.449 96.2093 125.508 94.7306 125.168 93.0735H112.385C111.906 93.0735 111.447 92.8862 111.108 92.5528C110.769 92.2194 110.578 91.7672 110.578 91.2957V77.8997H99.4942V85.5693L105.881 96.4538C106.039 96.7242 106.122 97.0306 106.121 97.3424V104.311C107.782 104.742 109.227 105.754 110.185 107.158C111.143 108.561 111.55 110.259 111.329 111.936C111.107 113.612 110.274 115.152 108.983 116.268C107.692 117.384 106.033 117.999 104.314 117.999C102.596 117.999 100.937 117.384 99.6462 116.268C98.3555 115.152 97.5216 113.612 97.3004 111.936C97.0791 110.259 97.4856 108.561 98.4439 107.158C99.4023 105.754 100.847 104.742 102.508 104.311V97.8193L96.1213 86.9347C95.9635 86.6644 95.8808 86.358 95.8813 86.0462V77.8997H86.4896V98.2836C88.1507 98.7154 89.5953 99.7274 90.5537 101.131C91.512 102.534 91.9185 104.232 91.6972 105.909C91.476 107.585 90.6421 109.125 89.3514 110.241C88.0606 111.357 86.4012 111.972 84.6831 111.972C82.965 111.972 81.3056 111.357 80.0148 110.241C78.7241 109.125 77.8902 107.585 77.669 105.909C77.4477 104.232 77.8542 102.534 78.8125 101.131C79.7709 99.7274 81.2155 98.7154 82.8766 98.2836V77.8997H73.4825V86.0462C73.483 86.358 73.4003 86.6644 73.2425 86.9347L66.8558 97.8193V104.311C68.5169 104.743 69.9615 105.755 70.9199 107.158C71.8782 108.562 72.2847 110.26 72.0634 111.937C71.8422 113.613 71.0083 115.153 69.7176 116.269C68.4268 117.385 66.7674 118 65.0493 118C63.3312 118 61.6718 117.385 60.381 116.269C59.0903 115.153 58.2564 113.613 58.0352 111.937C57.8139 110.26 58.2204 108.562 59.1787 107.158C60.1371 105.755 61.5817 104.743 63.2429 104.311V97.3432C63.2422 97.0314 63.325 96.7249 63.4828 96.4546L69.8696 85.57V77.8997H58.7877V91.2964C58.7878 91.5299 58.7412 91.7612 58.6504 91.9769C58.5596 92.1927 58.4265 92.3887 58.2587 92.5538C58.0909 92.7189 57.8917 92.8499 57.6724 92.9392C57.4532 93.0285 57.2182 93.0744 56.9809 93.0743H45.016ZM84.6803 101.609C83.996 101.609 83.327 101.809 82.758 102.183C82.1889 102.557 81.7454 103.088 81.4836 103.711C81.2217 104.333 81.1531 105.017 81.2867 105.678C81.4202 106.338 81.7497 106.945 82.2336 107.421C82.7175 107.897 83.3341 108.221 84.0053 108.353C84.6765 108.484 85.3722 108.417 86.0044 108.159C86.6367 107.901 87.1771 107.465 87.5573 106.905C87.9375 106.345 88.1404 105.687 88.1404 105.013C88.14 104.111 87.7753 103.245 87.1265 102.606C86.4777 101.968 85.5979 101.609 84.6803 101.609ZM65.0473 107.637C64.363 107.637 63.694 107.837 63.125 108.211C62.5559 108.585 62.1125 109.117 61.8506 109.739C61.5887 110.361 61.5202 111.046 61.6537 111.706C61.7872 112.367 62.1167 112.973 62.6006 113.45C63.0845 113.926 63.7011 114.25 64.3723 114.381C65.0435 114.513 65.7392 114.445 66.3714 114.188C67.0037 113.93 67.5441 113.494 67.9243 112.934C68.3045 112.374 68.5074 111.715 68.5074 111.042C68.5072 110.14 68.143 109.274 67.4947 108.635C66.8463 107.997 65.967 107.638 65.0497 107.637L65.0473 107.637ZM38.0813 88.2932C37.397 88.2932 36.728 88.4928 36.159 88.8669C35.59 89.2411 35.1465 89.7728 34.8846 90.3949C34.6227 91.017 34.5542 91.7016 34.6877 92.362C34.8212 93.0225 35.1507 93.6291 35.6347 94.1053C36.1186 94.5814 36.7351 94.9057 37.4063 95.0371C38.0775 95.1684 38.7732 95.101 39.4055 94.8433C40.0377 94.5856 40.5781 94.1492 40.9583 93.5893C41.3385 93.0295 41.5415 92.3712 41.5415 91.6978C41.541 90.795 41.1764 89.9292 40.5275 89.2908C39.8787 88.6524 38.9989 88.2936 38.0813 88.2932ZM132.099 88.2932C131.415 88.2932 130.746 88.4928 130.177 88.8669C129.608 89.2411 129.164 89.7728 128.902 90.3949C128.64 91.017 128.572 91.7016 128.705 92.362C128.839 93.0225 129.169 93.6291 129.652 94.1053C130.136 94.5814 130.753 94.9057 131.424 95.0371C132.095 95.1684 132.791 95.101 133.423 94.8433C134.055 94.5856 134.596 94.1492 134.976 93.5893C135.356 93.0295 135.559 92.3712 135.559 91.6978C135.559 90.7951 135.194 89.9295 134.546 89.2911C133.897 88.6527 133.017 88.2938 132.1 88.2932H132.099ZM104.316 107.637C103.632 107.637 102.963 107.836 102.394 108.21C101.825 108.585 101.382 109.116 101.12 109.738C100.858 110.361 100.789 111.045 100.923 111.706C101.056 112.366 101.386 112.973 101.87 113.449C102.354 113.925 102.97 114.249 103.641 114.381C104.313 114.512 105.008 114.445 105.641 114.187C106.273 113.929 106.813 113.493 107.193 112.933C107.574 112.373 107.777 111.715 107.777 111.041C107.776 110.138 107.412 109.273 106.763 108.634C106.114 107.996 105.234 107.637 104.316 107.637ZM57.5872 14.9959C59.1312 15.4314 60.6197 16.0387 62.0239 16.8061L64.8689 15.5594C65.2027 15.4133 65.5736 15.3703 65.9327 15.4359C66.2919 15.5015 66.6224 15.6727 66.8806 15.927L71.2277 20.2029C71.4856 20.4567 71.6594 20.7814 71.7262 21.1343C71.7931 21.4872 71.7498 21.8517 71.602 22.1799L70.3415 24.9801C71.1223 26.3644 71.7395 27.832 72.1811 29.3544L75.0822 30.4562C75.4228 30.5854 75.7158 30.813 75.9224 31.1091C76.129 31.4053 76.2395 31.7561 76.2395 32.1153V38.1667C76.2393 38.5257 76.1286 38.8762 75.922 39.1721C75.7154 39.4679 75.4226 39.6953 75.0822 39.8242L72.1803 40.926C71.7363 42.4448 71.1191 43.9093 70.3407 45.2917L71.602 48.0943C71.7498 48.4225 71.7931 48.787 71.7262 49.1399C71.6594 49.4927 71.4856 49.8174 71.2277 50.0713L66.8806 54.3488C66.6227 54.6025 66.2928 54.7735 65.9344 54.8392C65.5759 54.905 65.2056 54.8624 64.8721 54.7171L62.0271 53.4775C60.6221 54.2455 59.1324 54.8528 57.5872 55.2877L56.4698 58.1375C56.3385 58.4727 56.1072 58.7609 55.8062 58.9642C55.5053 59.1675 55.1488 59.2763 54.7837 59.2763H48.6345C48.2694 59.2764 47.9129 59.1677 47.6119 58.9644C47.3109 58.7611 47.0795 58.4728 46.9484 58.1375L45.8286 55.283C44.2828 54.8467 42.7923 54.2395 41.3855 53.4728L38.5372 54.7139C38.2037 54.8594 37.8332 54.9021 37.4746 54.8363C37.1159 54.7706 36.7859 54.5995 36.528 54.3456L32.1809 50.0681C31.9225 49.8141 31.7485 49.4889 31.6818 49.1355C31.6151 48.7821 31.6589 48.4172 31.8073 48.0888L33.0719 45.2909C32.2931 43.9084 31.6759 42.4436 31.2323 40.9245L28.328 39.8226C27.9878 39.6936 27.6953 39.4663 27.4888 39.1706C27.2824 38.8749 27.1718 38.5247 27.1714 38.1659V32.1145C27.1715 31.7553 27.282 31.4045 27.4886 31.1084C27.6952 30.8122 27.9882 30.5846 28.3288 30.4555L31.2323 29.3536C31.6756 27.8326 32.2927 26.3659 33.0719 24.9817L31.8105 22.1846C31.6621 21.8562 31.6183 21.4912 31.685 21.1379C31.7517 20.7845 31.9257 20.4593 32.1841 20.2052L36.5296 15.9278C36.7879 15.6732 37.1186 15.5017 37.4781 15.4359C37.8375 15.3701 38.2088 15.4132 38.5428 15.5594L41.3879 16.8045C42.7926 16.037 44.2816 15.4297 45.8262 14.9944L46.946 12.1319C47.0776 11.7967 47.3095 11.5085 47.6109 11.3055C47.9123 11.1025 48.2692 10.9941 48.6345 10.9947H54.7845C55.1498 10.9947 55.5065 11.1037 55.8075 11.3073C56.1085 11.5109 56.3397 11.7995 56.4706 12.1351L57.5872 14.9959ZM54.5477 17.1209L53.5439 14.5497H49.8734L48.864 17.1233C48.7584 17.3924 48.5878 17.6322 48.3669 17.822C48.1461 18.0118 47.8816 18.1458 47.5963 18.2125C45.7776 18.6383 44.0397 19.3474 42.4485 20.3131C42.1987 20.4644 41.9152 20.5536 41.6226 20.5729C41.3299 20.5922 41.0369 20.5411 40.7688 20.424L38.2093 19.3049L35.6162 21.8556L36.7528 24.3741C36.8718 24.6379 36.9237 24.9263 36.9041 25.2142C36.8844 25.5022 36.7938 25.7811 36.64 26.0269C35.6575 27.5967 34.9348 29.3102 34.4988 31.1032C34.4305 31.3834 34.2939 31.6431 34.101 31.8598C33.908 32.0766 33.6644 32.2439 33.391 32.3475L30.7835 33.3352V36.9453L33.391 37.933C33.6642 38.0364 33.9077 38.2035 34.1006 38.42C34.2936 38.6364 34.4303 38.8958 34.4988 39.1757C34.9344 40.9664 35.6566 42.6775 36.6384 44.2449C36.7931 44.491 36.8844 44.7706 36.9043 45.0593C36.9243 45.348 36.8723 45.6372 36.7528 45.9016L35.6162 48.4201L38.2093 50.9701L40.7688 49.8556C41.0362 49.739 41.3285 49.688 41.6204 49.707C41.9122 49.7261 42.1951 49.8146 42.4445 49.965C44.0398 50.9301 45.781 51.6394 47.6027 52.0664C47.8885 52.133 48.1534 52.2671 48.3746 52.4572C48.5958 52.6472 48.7665 52.8875 48.872 53.1572L49.8758 55.7229H53.5447L54.5485 53.1572C54.6539 52.8877 54.8244 52.6476 55.0453 52.4575C55.2662 52.2674 55.5308 52.1332 55.8163 52.0664C57.635 51.6426 59.3728 50.9342 60.9633 49.9682C61.2129 49.8165 61.4962 49.7269 61.7889 49.7071C62.0816 49.6874 62.3747 49.7381 62.643 49.8548L65.2025 50.9701L67.798 48.4162L66.6646 45.8977C66.5461 45.6345 66.4943 45.347 66.5137 45.0598C66.533 44.7726 66.623 44.4943 66.7758 44.2489C67.7556 42.6805 68.4767 40.9693 68.9122 39.1789C68.98 38.8978 69.1164 38.6373 69.3096 38.4198C69.5027 38.2023 69.7468 38.0344 70.0207 37.9306L72.6282 36.9429V33.3352L70.0207 32.3475C69.7468 32.2435 69.5026 32.0755 69.3095 31.8579C69.1163 31.6402 68.9799 31.3796 68.9122 31.0985C68.481 29.3065 67.7605 27.5942 66.7782 26.0269C66.6243 25.7811 66.5336 25.5023 66.5138 25.2143C66.494 24.9264 66.5458 24.638 66.6646 24.3741L67.7972 21.8556L65.2033 19.3033L62.6438 20.4225C62.3757 20.5396 62.0826 20.5907 61.79 20.5713C61.4973 20.552 61.2139 20.4628 60.9641 20.3115C59.3724 19.3459 57.6339 18.6371 55.8147 18.2117C55.529 18.1449 55.2642 18.0106 55.0432 17.8203C54.8221 17.6301 54.6515 17.3898 54.5461 17.1201L54.5477 17.1209ZM51.7067 22.8048C54.1863 22.8043 56.6104 23.5274 58.6723 24.8827C60.7342 26.2379 62.3413 28.1644 63.2904 30.4185C64.2395 32.6726 64.4879 35.153 64.0042 37.546C63.5206 39.939 62.3265 42.1371 60.5731 43.8623C58.8197 45.5875 56.5857 46.7623 54.1537 47.2381C51.7216 47.7139 49.2009 47.4693 46.9101 46.5353C44.6194 45.6012 42.6616 44.0197 41.2844 41.9908C39.9072 39.9618 39.1725 37.5766 39.1731 35.1367C39.1738 31.8663 40.4944 28.7301 42.8446 26.4177C45.1949 24.1053 48.3823 22.806 51.7059 22.8056L51.7067 22.8048ZM51.7067 26.3598C49.9419 26.3604 48.2169 26.876 46.7498 27.8412C45.2828 28.8065 44.1396 30.1782 43.4648 31.7828C42.79 33.3873 42.614 35.1528 42.9589 36.8558C43.3038 38.5589 44.1542 40.123 45.4026 41.3505C46.651 42.578 48.2412 43.4136 49.9722 43.7518C51.7033 44.09 53.4973 43.9155 55.1276 43.2503C56.7578 42.5852 58.151 41.4594 59.1309 40.0152C60.1109 38.5709 60.6336 36.8732 60.633 35.1367C60.6334 33.9834 60.4027 32.8414 59.9542 31.776C59.5057 30.7105 58.8481 29.7425 58.0191 28.9273C57.19 28.1122 56.2058 27.4658 55.1226 27.0252C54.0395 26.5847 52.8787 26.3585 51.7067 26.3598Z" fill="black"/>
</svg>
