<svg width="156" height="105" viewBox="0 0 156 105" fill="none" xmlns="http://www.w3.org/2000/svg">
<path opacity="0.27" d="M47.2637 93.1915C73.3667 93.1915 94.5273 72.3299 94.5273 46.5958C94.5273 20.8616 73.3667 0 47.2637 0C21.1607 0 0 20.8616 0 46.5958C0 72.3299 21.1607 93.1915 47.2637 93.1915Z" fill="#EFCC85"/>
<path d="M134.668 32.3929C133.649 32.3928 132.631 32.4652 131.623 32.6094C131.658 29.7776 130.932 26.987 129.519 24.5215C128.106 22.056 126.055 20.0036 123.576 18.573C121.097 17.1424 118.278 16.3847 115.405 16.377C112.532 16.3693 109.709 17.1117 107.222 18.5289C105.105 12.2907 100.635 7.0946 94.7372 4.01799C88.8396 0.94138 81.9673 0.220192 75.545 2.00393C69.1226 3.78767 63.6428 7.93953 60.2416 13.5988C56.8404 19.258 55.7787 25.9906 57.2765 32.4008C51.7533 32.5511 46.5124 34.8396 42.688 38.771C38.8636 42.7023 36.7633 47.9603 36.8417 53.4069C36.9201 58.8534 39.1708 64.0505 43.1069 67.8733C47.0429 71.6961 52.3475 73.8371 57.8728 73.8329L64.4809 73.6788C64.6145 79.8066 66.5675 85.7613 70.098 90.8063C73.6286 95.8513 78.582 99.7652 84.3453 102.064C90.1086 104.362 96.429 104.945 102.525 103.739C108.62 102.533 114.223 99.5924 118.641 95.2799C118.967 94.9612 119.151 94.528 119.153 94.0756C119.155 93.6231 118.974 93.1884 118.651 92.8672C118.328 92.5459 117.889 92.3644 117.43 92.3625C116.971 92.3607 116.53 92.5386 116.204 92.8573C111.111 97.8456 104.295 100.752 97.12 100.993C89.9454 101.234 82.9434 98.7928 77.518 94.1582C72.0926 89.5236 68.6448 83.0384 67.8657 76.0029C67.0867 68.9674 69.0342 61.9016 73.3176 56.2221C77.601 50.5427 83.9037 46.6695 90.9621 45.379C98.0206 44.0886 105.313 45.4763 111.377 49.2639C117.441 53.0516 121.829 58.9592 123.661 65.8023C125.492 72.6453 124.632 79.9181 121.253 86.1624C121.138 86.36 121.064 86.5785 121.035 86.8049C121.007 87.0313 121.025 87.2609 121.088 87.4803C121.152 87.6997 121.259 87.9043 121.404 88.0821C121.549 88.2599 121.729 88.4073 121.932 88.5154C122.136 88.6236 122.359 88.6904 122.59 88.7119C122.82 88.7334 123.052 88.7091 123.273 88.6405C123.494 88.5719 123.698 88.4604 123.874 88.3126C124.051 88.1647 124.195 87.9836 124.299 87.7798C126.64 83.4625 127.92 78.6633 128.035 73.7689C131.52 73.8479 134.881 73.8305 135.273 73.8321L135.149 73.8266C140.68 73.7006 145.937 71.43 149.78 67.5073C153.624 63.5846 155.743 58.3261 155.679 52.8727C155.615 47.4192 153.373 42.2105 149.439 38.3764C145.504 34.5423 140.195 32.392 134.663 32.3921L134.668 32.3929ZM134.668 70.4203C134.492 70.4203 131.397 70.4068 127.953 70.4858C127.313 62.6253 123.691 55.2914 117.809 49.9471C111.928 44.6029 104.218 41.641 96.2195 41.6525C88.2207 41.664 80.5202 44.6479 74.6543 50.009C68.7883 55.3701 65.1879 62.7144 64.5715 70.5767L57.8768 70.4187C55.5056 70.4209 53.1585 69.9495 50.9773 69.0328C48.796 68.1161 46.8258 66.7732 45.1854 65.0852C43.5451 63.3971 42.2687 61.3989 41.4333 59.2111C40.5979 57.0234 40.2208 54.6914 40.3247 52.356C40.4286 50.0205 41.0115 47.7301 42.038 45.6229C43.0646 43.5156 44.5136 41.6353 46.2976 40.0954C48.0816 38.5555 50.1636 37.3879 52.4179 36.663C54.6722 35.9382 57.0521 35.6712 59.414 35.8782C59.7015 35.9062 59.9916 35.8628 60.2577 35.752C60.5239 35.6412 60.7578 35.4666 60.9379 35.2439C61.1181 35.0212 61.239 34.7577 61.2895 34.4772C61.3399 34.1968 61.3184 33.9083 61.2269 33.6381C60.4672 31.3923 60.0822 29.0397 60.0872 26.6722C60.086 21.2216 62.1198 15.9613 65.8007 11.8944C69.4816 7.82748 74.5521 5.2385 80.0452 4.62121C85.5383 4.00391 91.0697 5.40149 95.5846 8.5474C100.099 11.6933 103.282 16.3675 104.525 21.6785C104.591 21.9614 104.729 22.2231 104.926 22.4387C105.124 22.6543 105.373 22.8167 105.652 22.9106C105.931 23.0045 106.229 23.0268 106.519 22.9753C106.809 22.9238 107.081 22.8003 107.308 22.6164C116.264 15.3842 129.921 22.8424 127.986 34.4623C127.94 34.7436 127.966 35.0319 128.061 35.3009C128.156 35.57 128.319 35.8112 128.533 36.0025C128.747 36.1939 129.007 36.3293 129.288 36.3965C129.569 36.4637 129.862 36.4604 130.142 36.3871C132.555 35.7528 135.078 35.6336 137.542 36.0375C140.006 36.4413 142.355 37.3588 144.43 38.7288C146.506 40.0988 148.261 41.8897 149.579 43.9819C150.896 46.074 151.746 48.4192 152.071 50.8609C152.395 53.3026 152.188 55.7845 151.462 58.1408C150.736 60.4971 149.509 62.6736 147.861 64.5248C146.214 66.3761 144.185 67.8596 141.91 68.8761C139.635 69.8926 137.166 70.4196 134.668 70.4203Z" fill="black"/>
<path d="M116.657 73.0049C116.657 73.4574 116.839 73.8914 117.164 74.2114C117.488 74.5314 117.929 74.7112 118.388 74.7112C118.847 74.7112 119.287 74.5314 119.611 74.2114C119.936 73.8914 120.118 73.4574 120.118 73.0049C120.11 66.7704 117.595 60.7935 113.123 56.3851C108.651 51.9766 102.589 49.4965 96.2649 49.4885C95.8059 49.4885 95.3657 49.6683 95.0411 49.9883C94.7165 50.3083 94.5341 50.7423 94.5341 51.1948C94.5341 51.6474 94.7165 52.0814 95.0411 52.4014C95.3657 52.7214 95.8059 52.9012 96.2649 52.9012C101.671 52.9072 106.854 55.0272 110.677 58.7961C114.5 62.565 116.651 67.6749 116.657 73.0049Z" fill="black"/>
<path d="M96.2649 93.1078C90.8586 93.1017 85.6754 90.9817 81.8525 87.2128C78.0296 83.444 75.8792 78.334 75.8731 73.0041C75.8731 72.5515 75.6907 72.1175 75.3661 71.7975C75.0415 71.4775 74.6013 71.2977 74.1423 71.2977C73.6832 71.2977 73.243 71.4775 72.9184 71.7975C72.5938 72.1175 72.4115 72.5515 72.4115 73.0041C72.4196 79.2385 74.9353 85.2154 79.4069 89.6238C83.8786 94.0323 89.9411 96.5125 96.2649 96.5204C96.724 96.5204 97.1642 96.3406 97.4888 96.0206C97.8134 95.7006 97.9957 95.2666 97.9957 94.8141C97.9957 94.3615 97.8134 93.9275 97.4888 93.6075C97.1642 93.2875 96.724 93.1078 96.2649 93.1078Z" fill="black"/>
<path d="M97.9993 85.0577C99.8296 85.0033 101.565 84.2419 102.831 82.9378C104.097 81.6337 104.793 79.8913 104.768 78.0862C104.743 76.2811 104 74.5579 102.698 73.2881C101.397 72.0183 99.6413 71.3036 97.8102 71.2981H94.7205C93.7864 71.2981 92.8905 70.9322 92.23 70.2811C91.5695 69.6299 91.1984 68.7467 91.1984 67.8258C91.1984 66.9049 91.5695 66.0217 92.23 65.3705C92.8905 64.7193 93.7864 64.3535 94.7205 64.3535H97.6587C98.5923 64.3547 99.4873 64.7209 100.147 65.3717C100.808 66.0226 101.179 66.905 101.18 67.8254C101.18 68.2779 101.363 68.7119 101.687 69.0319C102.012 69.3519 102.452 69.5317 102.911 69.5317C103.37 69.5317 103.81 69.3519 104.135 69.0319C104.46 68.7119 104.642 68.2779 104.642 67.8254C104.639 66.0599 103.948 64.363 102.713 63.085C101.477 61.8071 99.7911 61.0457 98.0025 60.9582V58.8841C98.0025 58.4315 97.8202 57.9975 97.4956 57.6775C97.171 57.3575 96.7308 57.1777 96.2717 57.1777C95.8127 57.1777 95.3725 57.3575 95.0479 57.6775C94.7233 57.9975 94.541 58.4315 94.541 58.8841V60.9503C92.7063 60.9978 90.9644 61.7558 89.6924 63.0601C88.4204 64.3644 87.7207 66.1102 87.7447 67.9194C87.7687 69.7286 88.5146 71.4557 89.8208 72.7268C91.127 73.9978 92.8884 74.7106 94.7237 74.7107H97.8134C98.7475 74.7107 99.6433 75.0765 100.304 75.7277C100.964 76.3789 101.335 77.2621 101.335 78.183C101.335 79.1039 100.964 79.9871 100.304 80.6383C99.6433 81.2895 98.7475 81.6553 97.8134 81.6553H94.8776C93.9438 81.6541 93.0487 81.2877 92.3885 80.6367C91.7283 79.9857 91.357 79.1032 91.3559 78.1826C91.3559 77.7301 91.1735 77.2961 90.849 76.9761C90.5244 76.6561 90.0841 76.4763 89.6251 76.4763C89.1661 76.4763 88.7259 76.6561 88.4013 76.9761C88.0767 77.2961 87.8943 77.7301 87.8943 78.1826C87.8972 79.9494 88.5886 81.6475 89.8257 82.9258C91.0628 84.2042 92.751 84.9648 94.541 85.0506V87.1239C94.541 87.5765 94.7233 88.0105 95.0479 88.3305C95.3725 88.6505 95.8127 88.8302 96.2717 88.8302C96.7308 88.8302 97.171 88.6505 97.4956 88.3305C97.8202 88.0105 98.0025 87.5765 98.0025 87.1239L97.9993 85.0577Z" fill="black"/>
</svg>
