<svg width="134" height="101" viewBox="0 0 134 101" fill="none" xmlns="http://www.w3.org/2000/svg">
<path opacity="0.27" d="M47.7502 94.0606C74.1219 94.0606 95.5004 73.0044 95.5004 47.0303C95.5004 21.0562 74.1219 0 47.7502 0C21.3785 0 0 21.0562 0 47.0303C0 73.0044 21.3785 94.0606 47.7502 94.0606Z" fill="#EFCC85"/>
<path d="M133.604 59.6223C133.601 56.9392 132.816 54.3134 131.343 52.056C129.871 49.7986 127.773 48.0041 125.297 46.8852V45.5932C125.297 33.5011 120.42 21.9043 111.738 13.3539C103.057 4.80355 91.2827 0 79.0056 0C66.7284 0 54.9541 4.80355 46.2728 13.3539C37.5916 21.9043 32.7145 33.5011 32.7145 45.5932V46.8852C29.7602 48.2171 27.3576 50.5045 25.9056 53.3673C24.4537 56.2301 24.0399 59.4959 24.733 62.6224C25.4261 65.7488 27.1844 68.5476 29.7157 70.5537C32.247 72.5599 35.3991 73.6527 38.6481 73.6506H43.3955C44.0252 73.6506 44.6291 73.4042 45.0743 72.9657C45.5195 72.5272 45.7697 71.9324 45.7697 71.3123V47.9307C45.7697 47.3105 45.5195 46.7158 45.0743 46.2773C44.6291 45.8387 44.0252 45.5924 43.3955 45.5924H38.6481C38.2473 45.5924 37.8538 45.6195 37.4611 45.6514V45.5924C37.5096 34.7718 41.9078 24.4108 49.6935 16.7763C57.4791 9.14184 68.0181 4.85568 79.0044 4.85568C89.9907 4.85568 100.53 9.14184 108.315 16.7763C116.101 24.4108 120.499 34.7718 120.548 45.5924V45.6514C120.155 45.6195 119.761 45.5924 119.361 45.5924H114.613C113.984 45.5924 113.38 45.8387 112.934 46.2773C112.489 46.7158 112.239 47.3105 112.239 47.9307V71.3123C112.239 71.9324 112.489 72.5272 112.934 72.9657C113.38 73.4042 113.984 73.6506 114.613 73.6506H119.361C119.761 73.6506 120.155 73.6235 120.548 73.5916V77.1581C120.543 80.8773 119.041 84.443 116.371 87.0729C113.701 89.7028 110.081 91.1821 106.305 91.1864H88.5004C88.4989 89.9467 87.9982 88.7583 87.1083 87.8817C86.2183 87.0051 85.0116 86.512 83.753 86.5105H71.8832C70.6246 86.512 69.418 87.0051 68.528 87.8817C67.638 88.7583 67.1373 89.9467 67.1358 91.1864V95.8614C67.1373 97.1011 67.638 98.2895 68.528 99.1661C69.418 100.043 70.6246 100.536 71.8832 100.537H83.753C85.0116 100.536 86.2183 100.043 87.1083 99.1661C87.9982 98.2895 88.4989 97.1011 88.5004 95.8614H106.305C111.339 95.8559 116.167 93.8837 119.727 90.3774C123.287 86.8711 125.29 82.117 125.297 77.1581V72.3586C127.772 71.2397 129.871 69.4454 131.343 67.1881C132.816 64.9308 133.6 62.3052 133.604 59.6223ZM41.0222 50.2698V68.9747H38.6481C36.1297 68.9747 33.7145 67.9894 31.9337 66.2355C30.1529 64.4815 29.1525 62.1027 29.1525 59.6223C29.1525 57.1419 30.1529 54.763 31.9337 53.0091C33.7145 51.2552 36.1297 50.2698 38.6481 50.2698H41.0222ZM71.8832 95.8614V91.1856H83.753V93.5071C83.753 93.5127 83.753 93.5183 83.753 93.5239C83.753 93.5295 83.753 93.535 83.753 93.5406V95.8614H71.8832ZM119.361 68.9747H116.987V50.2698H119.361C121.88 50.2698 124.295 51.2552 126.076 53.0091C127.857 54.763 128.857 57.1419 128.857 59.6223C128.857 62.1027 127.857 64.4815 126.076 66.2355C124.295 67.9894 121.88 68.9747 119.361 68.9747ZM79.0048 74.8197C84.7756 74.8304 90.3881 72.9614 94.9684 69.5037C99.5487 66.0461 102.84 61.1938 104.329 55.7025C105.818 50.2111 105.422 44.3889 103.203 39.1423C100.983 33.8956 97.0643 29.5191 92.0567 26.694C87.0491 23.869 81.2337 22.754 75.5158 23.5226C69.7979 24.2913 64.4986 26.9004 60.4428 30.9439C56.387 34.9873 53.8025 40.2381 53.0916 45.8787C52.3807 51.5193 53.5833 57.2331 56.5123 62.1305L54.122 74.3787C54.0406 74.7961 54.0762 75.2275 54.2251 75.6264C54.374 76.0254 54.6305 76.3768 54.967 76.6429C55.3034 76.909 55.7072 77.0798 56.1348 77.1368C56.5625 77.1939 56.9978 77.135 57.394 76.9667L68.0492 72.4352C71.4779 74.0126 75.2173 74.8267 79.0015 74.8197H79.0048ZM59.6281 70.9223L61.3447 62.1217C61.4597 61.5336 61.3411 60.9244 61.0135 60.4198C58.2214 56.1139 57.1134 50.9552 57.896 45.9044C58.6785 40.8537 61.2982 36.2553 65.2672 32.9655C69.2362 29.6758 74.2839 27.919 79.4702 28.0224C84.6566 28.1257 89.628 30.0821 93.4586 33.5273C97.2893 36.9725 99.718 41.6715 100.292 46.7492C100.867 51.827 99.5481 56.9373 96.5814 61.1285C93.6148 65.3197 89.2026 68.306 84.1665 69.5313C79.1305 70.7566 73.814 70.1373 69.2071 67.7888C68.895 67.6294 68.5507 67.5404 68.1993 67.5282C67.8479 67.5161 67.4982 67.5812 67.1755 67.7187L59.6281 70.9223ZM79.0048 56.1148H67.135C66.5131 56.1035 65.9205 55.8522 65.4847 55.415C65.0489 54.9778 64.8048 54.3896 64.8048 53.7769C64.8048 53.1642 65.0489 52.576 65.4847 52.1388C65.9205 51.7016 66.5131 51.4503 67.135 51.439H79.0048C79.6267 51.4503 80.2193 51.7016 80.6551 52.1388C81.0909 52.576 81.335 53.1642 81.335 53.7769C81.335 54.3896 81.0909 54.9778 80.6551 55.415C80.2193 55.8522 79.6267 56.1035 79.0048 56.1148ZM64.7617 44.4216C64.7617 43.8015 65.0119 43.2067 65.4571 42.7682C65.9023 42.3297 66.5062 42.0833 67.1358 42.0833H90.8745C91.1899 42.0776 91.5033 42.1338 91.7964 42.2487C92.0895 42.3636 92.3564 42.5349 92.5815 42.7526C92.8066 42.9703 92.9855 43.2299 93.1075 43.5164C93.2296 43.8029 93.2925 44.1105 93.2925 44.4212C93.2925 44.7319 93.2296 45.0395 93.1075 45.326C92.9855 45.6125 92.8066 45.8722 92.5815 46.0899C92.3564 46.3075 92.0895 46.4788 91.7964 46.5937C91.5033 46.7087 91.1899 46.7649 90.8745 46.7592H67.135C66.5056 46.7589 65.9021 46.5126 65.4571 46.0743C65.012 45.6359 64.7619 45.0415 64.7617 44.4216Z" fill="black"/>
</svg>
