<svg width="166" height="162" viewBox="0 0 166 162" fill="none" xmlns="http://www.w3.org/2000/svg">
<path opacity="0.27" d="M42.1828 117.323C65.4797 117.323 84.3656 98.7238 84.3656 75.7805C84.3656 52.8372 65.4797 34.238 42.1828 34.238C18.8859 34.238 0 52.8372 0 75.7805C0 98.7238 18.8859 117.323 42.1828 117.323Z" fill="#EFCC85"/>
<path d="M71.3036 90.803L73.649 82.183C73.7935 81.6526 73.7342 81.0883 73.4826 80.5983C73.231 80.1082 72.8047 79.7268 72.2854 79.5269L68.5187 78.0779C68.3182 76.7414 67.963 75.432 67.46 74.1751L69.9835 71.0683C70.3319 70.6395 70.5076 70.0993 70.4768 69.5509C70.446 69.0026 70.2109 68.4847 69.8166 68.0964L63.4095 61.7867C63.0153 61.3983 62.4894 61.1668 61.9326 61.1365C61.3759 61.1061 60.8273 61.2791 60.3919 61.6223L57.2372 64.1074C55.961 63.612 54.6313 63.2622 53.2743 63.0649L51.8029 59.3553C51.6 58.8438 51.2126 58.424 50.715 58.1762C50.2174 57.9284 49.6445 57.8701 49.1059 58.0124L40.353 60.3222C39.8144 60.4642 39.3479 60.7969 39.0429 61.2566C38.7378 61.7162 38.6155 62.2705 38.6995 62.8133L39.3085 66.7505C38.2364 67.5918 37.264 68.5494 36.4098 69.6053L32.4114 69.006C31.8602 68.9233 31.2974 69.0437 30.8306 69.3441C30.3639 69.6446 30.0261 70.104 29.8819 70.6344L27.5375 79.2535C27.393 79.7839 27.4523 80.3481 27.7039 80.8381C27.9555 81.3282 28.3818 81.7096 28.9011 81.9095L32.6678 83.3585C32.8684 84.6952 33.2238 86.0048 33.727 87.2619L31.2035 90.3687C30.8554 90.7973 30.6799 91.3374 30.7107 91.8855C30.7415 92.4336 30.9764 92.9513 31.3704 93.3395L37.778 99.6498C38.1721 100.038 38.6979 100.27 39.2545 100.3C39.8112 100.33 40.3597 100.158 40.7951 99.8146L43.9498 97.3295C45.226 97.8248 46.5557 98.1746 47.9127 98.3721L49.3841 102.082C49.5869 102.593 49.9742 103.013 50.4719 103.261C50.9695 103.509 51.5425 103.567 52.0811 103.425L60.834 101.115C61.3726 100.973 61.8391 100.64 62.1441 100.18C62.4492 99.7208 62.5715 99.1665 62.4875 98.6236L61.8785 94.6864C62.9504 93.845 63.9228 92.8874 64.7772 91.8317L68.7751 92.4314C69.3262 92.5139 69.8887 92.3933 70.3552 92.0929C70.8217 91.7925 71.1594 91.3333 71.3036 90.803ZM61.883 88.1774C60.8952 89.6213 59.6335 90.8638 58.1674 91.8366C57.8109 92.0726 57.53 92.4036 57.3572 92.7908C57.1845 93.1781 57.1271 93.6057 57.1917 94.0239L57.7021 97.321L52.8661 98.5967L51.6319 95.4884C51.4754 95.094 51.2082 94.7517 50.8615 94.5013C50.5148 94.2509 50.1029 94.1028 49.6739 94.0742C47.9113 93.9603 46.1884 93.5071 44.6028 92.7402C44.2169 92.5537 43.7851 92.4792 43.3577 92.5253C42.9304 92.5714 42.5253 92.7363 42.1896 93.0008L39.5478 95.0814L36.0071 91.5946L38.1199 88.9928C38.3884 88.6622 38.5558 88.2632 38.6027 87.8424C38.6495 87.4216 38.5738 86.9963 38.3844 86.6163C37.6056 85.055 37.1452 83.3584 37.0294 81.6226C37.0006 81.2001 36.8503 80.7944 36.5961 80.4529C36.3419 80.1113 35.9943 79.8481 35.5939 79.6938L32.4377 78.4784L33.733 73.7158L37.0815 74.2179C37.5063 74.2821 37.941 74.226 38.3347 74.0562C38.7284 73.8863 39.0649 73.6096 39.305 73.2585C40.2926 71.8144 41.5542 70.5719 43.0206 69.5993C43.3771 69.3633 43.658 69.0324 43.8308 68.6451C44.0035 68.2578 44.061 67.8302 43.9963 67.412L43.486 64.1149L48.3219 62.8392L49.5566 65.948C49.713 66.3425 49.9802 66.6849 50.3269 66.9354C50.6736 67.1858 51.0856 67.3338 51.5146 67.3622C53.2772 67.4763 55.0001 67.9295 56.5857 68.6962C56.9716 68.8827 57.4035 68.9573 57.8308 68.9111C58.2581 68.865 58.6632 68.7001 58.9989 68.4357L61.6408 66.355L65.1814 69.8419L63.0686 72.4436C62.8001 72.7742 62.6327 73.1732 62.5858 73.594C62.539 74.0148 62.6147 74.4401 62.8041 74.8202C63.5827 76.3814 64.0429 78.0778 64.1586 79.8134C64.1875 80.2358 64.3379 80.6415 64.5922 80.983C64.8464 81.3244 65.1941 81.5875 65.5946 81.7416L68.7508 82.957L67.4555 87.7196L64.102 87.2185C63.6774 87.1549 63.2431 87.2114 62.8499 87.3815C62.4567 87.5516 62.1206 87.8284 61.881 88.1794L61.883 88.1774Z" fill="black"/>
<path d="M56.1998 75.1962C54.7114 73.7344 52.6951 72.9134 50.593 72.9134C48.4909 72.9134 46.4746 73.7344 44.9862 75.1962C37.8402 82.7887 48.4929 93.2767 56.1998 86.2397C57.6842 84.7739 58.5178 82.7882 58.5178 80.718C58.5178 78.6478 57.6842 76.6621 56.1998 75.1962ZM48.1899 83.0846C47.7145 82.6166 47.3907 82.0202 47.2595 81.371C47.1282 80.7218 47.1954 80.0488 47.4525 79.4372C47.7097 78.8255 48.1452 78.3027 48.7041 77.9349C49.2629 77.567 49.92 77.3707 50.5922 77.3706C51.2643 77.3705 51.9214 77.5668 52.4804 77.9345C53.0393 78.3022 53.4749 78.8249 53.7322 79.4365C53.9895 80.0481 54.0568 80.7211 53.9257 81.3703C53.7946 82.0196 53.4709 82.616 52.9956 83.0841C52.3579 83.7108 51.4938 84.0628 50.5929 84.0629C49.692 84.063 48.8278 83.7111 48.1899 83.0846Z" fill="black"/>
<path d="M150.798 80.7185C151.186 62.2375 134.652 45.9542 115.886 46.3358C111.728 46.342 107.605 47.0752 103.708 48.5012L103.718 48.4767C103.926 47.927 103.905 47.3188 103.661 46.7839C103.416 46.249 102.968 45.8303 102.412 45.6186C101.857 45.4069 101.239 45.4191 100.693 45.6526C100.146 45.8861 99.7154 46.3222 99.4931 46.8663L97.4491 52.0672C97.3418 52.3405 97.2902 52.632 97.2973 52.9249C97.3044 53.2179 97.37 53.5066 97.4904 53.7745C97.6108 54.0425 97.7836 54.2845 97.9989 54.4867C98.2143 54.6888 98.468 54.8473 98.7455 54.9529L104.027 56.9658C104.304 57.0715 104.6 57.1222 104.897 57.1153C105.195 57.1083 105.488 57.0437 105.76 56.9251C106.032 56.8066 106.278 56.6364 106.483 56.4243C106.689 56.2122 106.849 55.9624 106.957 55.6891C107.064 55.4158 107.116 55.1244 107.108 54.8315C107.101 54.5385 107.036 54.2498 106.915 53.9819C106.795 53.7139 106.622 53.4719 106.407 53.2698C106.192 53.0676 105.938 52.9091 105.66 52.8035L105.314 52.6715C108.697 51.4367 112.276 50.8019 115.884 50.7965C132.215 50.4638 146.603 64.6345 146.265 80.7165C146.603 96.799 132.213 110.97 115.886 110.638C99.5548 110.97 85.1677 96.8015 85.5051 80.7185C85.5045 73.4538 83.1683 66.3758 78.8313 60.4993C74.4943 54.6227 68.3794 50.2495 61.3631 48.0065C60.7915 47.8241 60.1697 47.8727 59.6345 48.1418C59.0994 48.4108 58.6946 48.8782 58.5094 49.4411C58.3241 50.004 58.3735 50.6164 58.6467 51.1435C58.9199 51.6705 59.3945 52.0691 59.9661 52.2515C66.0791 54.1914 71.408 57.9941 75.1837 63.1106C78.9594 68.2272 80.9866 74.393 80.9726 80.718C80.5862 99.1995 97.1188 115.482 115.885 115.1C134.65 115.483 151.186 99.199 150.797 80.718L150.798 80.7185Z" fill="black"/>
<path d="M95.176 70.6334L92.8306 79.2535C92.6862 79.7839 92.7454 80.3481 92.997 80.8381C93.2486 81.3282 93.6749 81.7097 94.1943 81.9095L97.9605 83.358C98.1609 84.6945 98.5161 86.004 99.0191 87.2609L96.4957 90.3677C96.1475 90.7964 95.972 91.3364 96.0028 91.8845C96.0336 92.4326 96.2685 92.9503 96.6626 93.3385L103.071 99.6498C103.465 100.038 103.991 100.27 104.548 100.3C105.104 100.33 105.653 100.158 106.088 99.8146L109.243 97.3295C110.519 97.8249 111.849 98.1747 113.206 98.3721L114.677 102.082C114.88 102.593 115.268 103.013 115.765 103.261C116.263 103.508 116.836 103.567 117.374 103.425L126.127 101.115C126.666 100.973 127.132 100.64 127.437 100.18C127.742 99.7208 127.865 99.1665 127.781 98.6236L127.172 94.6864C128.244 93.845 129.216 92.8874 130.07 91.8317L134.068 92.4314C134.619 92.5141 135.182 92.3937 135.649 92.0933C136.116 91.7929 136.454 91.3335 136.598 90.803L138.943 82.183C139.088 81.6526 139.028 81.0883 138.777 80.5983C138.525 80.1082 138.099 79.7268 137.58 79.527L133.813 78.0779C133.612 76.7414 133.257 75.432 132.754 74.1751L135.278 71.0683C135.626 70.6395 135.801 70.0993 135.77 69.5511C135.74 69.0029 135.504 68.4851 135.11 68.0969L128.703 61.7867C128.309 61.3985 127.783 61.167 127.226 61.1367C126.67 61.1064 126.121 61.2793 125.686 61.6223L122.531 64.1074C121.255 63.6122 119.925 63.2623 118.568 63.0649L117.094 59.3573C116.891 58.8458 116.504 58.426 116.006 58.1782C115.509 57.9305 114.936 57.8721 114.397 58.0144L105.646 60.3222C105.108 60.4642 104.641 60.7969 104.336 61.2566C104.031 61.7162 103.909 62.2705 103.993 62.8133L104.602 66.7505C103.53 67.5918 102.557 68.5494 101.703 69.6053L97.7045 69.006C97.1533 68.9233 96.5905 69.0437 96.1238 69.3441C95.6571 69.6446 95.3193 70.104 95.175 70.6344L95.176 70.6334ZM104.597 73.259C105.584 71.8149 106.846 70.5724 108.312 69.5998C108.669 69.3638 108.95 69.0329 109.122 68.6456C109.295 68.2583 109.353 67.8307 109.288 67.4125L108.776 64.1169L113.612 62.8412L114.847 65.95C115.003 66.3445 115.27 66.6869 115.617 66.9374C115.964 67.1878 116.376 67.3358 116.805 67.3642C118.567 67.4783 120.29 67.9317 121.875 68.6987C122.261 68.8852 122.693 68.9598 123.12 68.9136C123.548 68.8675 123.953 68.7026 124.289 68.4382L126.93 66.3575L130.471 69.8444L128.358 72.4461C128.09 72.7767 127.922 73.1757 127.875 73.5965C127.829 74.0173 127.904 74.4426 128.094 74.8226C128.872 76.3838 129.333 78.0803 129.448 79.8159C129.477 80.2383 129.627 80.644 129.882 80.9855C130.136 81.3269 130.484 81.59 130.884 81.7441L134.04 82.9595L132.745 87.7221L129.398 87.2155C128.974 87.1519 128.539 87.2084 128.146 87.3785C127.753 87.5487 127.417 87.8254 127.177 88.1764C126.189 89.6203 124.928 90.8628 123.462 91.8357C123.105 92.0716 122.824 92.4026 122.651 92.7898C122.479 93.1771 122.421 93.6048 122.486 94.0229L122.996 97.32L118.16 98.5957L116.926 95.4869C116.769 95.0926 116.502 94.7503 116.155 94.4999C115.808 94.2495 115.397 94.1013 114.968 94.0727C113.205 93.9588 111.482 93.5056 109.896 92.7388C109.511 92.5522 109.079 92.4777 108.651 92.5238C108.224 92.5699 107.819 92.7348 107.483 92.9993L104.841 95.08L101.301 91.5931L103.414 88.9914C103.682 88.6608 103.849 88.2617 103.896 87.8409C103.943 87.4201 103.867 86.9948 103.678 86.6148C102.899 85.0535 102.439 83.3569 102.323 81.6211C102.294 81.1984 102.144 80.7926 101.89 80.451C101.635 80.1094 101.288 79.8461 100.887 79.6918L97.7308 78.4764L99.0262 73.7138L102.375 74.2159C102.799 74.2802 103.233 74.2244 103.627 74.055C104.02 73.8855 104.356 73.6095 104.597 73.259Z" fill="black"/>
<path d="M110.28 86.2401C111.768 87.702 113.784 88.523 115.887 88.523C117.989 88.523 120.005 87.702 121.493 86.2401C128.639 78.6477 117.987 68.1596 110.28 75.1967C108.795 76.6625 107.962 78.6482 107.962 80.7184C107.962 82.7886 108.795 84.7743 110.28 86.2401ZM118.29 78.3518C118.765 78.8198 119.089 79.4161 119.22 80.0654C119.351 80.7146 119.284 81.3876 119.027 81.9992C118.77 82.6108 118.334 83.1336 117.776 83.5015C117.217 83.8693 116.56 84.0657 115.887 84.0658C115.215 84.0659 114.558 83.8696 113.999 83.5019C113.44 83.1341 113.005 82.6115 112.747 81.9999C112.49 81.3883 112.423 80.7153 112.554 80.0661C112.685 79.4168 113.009 78.8204 113.484 78.3523C114.122 77.7256 114.986 77.3736 115.887 77.3735C116.788 77.3734 117.652 77.7252 118.29 78.3518Z" fill="black"/>
<path d="M69.0296 109.366C69.1369 109.093 69.1885 108.801 69.1814 108.509C69.1743 108.216 69.1087 107.927 68.9883 107.659C68.8679 107.391 68.6951 107.149 68.4798 106.947C68.2644 106.745 68.0107 106.586 67.7332 106.481L62.4521 104.468C61.8916 104.254 61.2681 104.269 60.7186 104.508C60.1691 104.748 59.7386 105.192 59.522 105.744C59.3053 106.296 59.3202 106.91 59.5633 107.452C59.8065 107.993 60.2579 108.417 60.8184 108.63L61.1664 108.763C57.7825 109.997 54.2033 110.632 50.5946 110.637C34.2642 110.97 19.8761 96.799 20.2135 80.717C20.1996 74.392 22.2269 68.2263 26.0027 63.1098C29.7785 57.9934 35.1075 54.1908 41.2205 52.2511C41.5063 52.1631 41.7716 52.0201 42.001 51.8305C42.2303 51.6409 42.4193 51.4084 42.5568 51.1464C42.6944 50.8844 42.7778 50.5982 42.8023 50.3043C42.8268 50.0104 42.7919 49.7146 42.6996 49.434C42.6073 49.1534 42.4594 48.8937 42.2645 48.6698C42.0696 48.4459 41.8316 48.2622 41.5642 48.1295C41.2968 47.9967 41.0053 47.9175 40.7066 47.8964C40.4079 47.8753 40.1079 47.9127 39.824 48.0065C25.6974 52.3338 15.4842 66.1119 15.682 80.7185C15.463 104.452 40.2651 121.401 62.7713 112.936L62.7622 112.96C62.5455 113.512 62.5604 114.126 62.8035 114.667C63.0466 115.209 63.4981 115.633 64.0585 115.846C64.619 116.059 65.2426 116.045 65.7921 115.805C66.3416 115.566 66.772 115.121 66.9887 114.569L69.0296 109.366Z" fill="black"/>
<path d="M48.9926 50.1449C49.2499 50.3982 49.5654 50.5868 49.9124 50.6946C50.2594 50.8025 50.6276 50.8264 50.986 50.7645C51.3443 50.7025 51.6823 50.5564 51.9712 50.3386C52.2601 50.1208 52.4915 49.8377 52.6458 49.5132C52.8001 49.1887 52.8727 48.8324 52.8576 48.4743C52.8425 48.1163 52.74 47.7672 52.5589 47.4564C52.3778 47.1456 52.1233 46.8824 51.817 46.689C51.5108 46.4956 51.1617 46.3777 50.7993 46.3452C50.3355 46.3037 49.87 46.4039 49.4661 46.6323C49.0622 46.8607 48.7396 47.2061 48.5423 47.6216C48.3449 48.037 48.2823 48.5022 48.3631 48.9539C48.4439 49.4056 48.664 49.8219 48.9936 50.1459L48.9926 50.1449Z" fill="black"/>
</svg>
